<svg width="60" height="299" viewBox="0 0 60 299" fill="none" xmlns="http://www.w3.org/2000/svg">
<path d="M56.515 226.96L56.515 266.145L32.035 253.905L32.035 240.985C32.035 232.315 24.98 225.26 16.31 225.26C7.63999 225.26 0.584992 232.315 0.584992 240.985L0.584994 282.975C0.584994 283.995 1.34999 284.76 2.285 284.76C3.22 284.76 4.07 283.995 4.06999 282.975L4.06999 269.035C4.06999 262.235 9.50999 256.71 16.31 256.71C23.025 256.71 28.55 262.235 28.55 269.035L28.55 282.975C28.55 283.655 28.89 284.25 29.485 284.59L57.535 298.53C58.045 298.87 58.725 298.785 59.235 298.445C59.745 298.19 60 297.595 60 297L60 269.035C60 268.95 60 268.95 60 268.95L60 226.96C60 226.025 59.235 225.26 58.3 225.26C57.365 225.26 56.515 226.025 56.515 226.96ZM1.34999 141.265C0.83999 141.605 0.584988 142.2 0.584988 142.795L0.584991 198.725C0.499992 198.81 0.584991 198.895 0.584991 198.98C0.584991 199.235 0.669995 199.49 0.839992 199.66C0.924991 199.915 1.09499 200.085 1.34999 200.255C1.34999 200.255 1.43499 200.34 1.51999 200.34L57.535 228.305C58.045 228.645 58.725 228.56 59.235 228.22C59.745 227.965 60 227.37 60 226.775L60 198.81L60 170.76C60 170.08 59.66 169.485 59.065 169.23L3.04999 141.18C2.53999 140.925 1.85999 140.925 1.34999 141.265ZM4.06999 197.025L4.06999 173.565L50.905 197.025L4.06999 197.025ZM56.515 200.51L56.515 223.97L9.68 200.51L56.515 200.51ZM56.515 72.4825L56.515 111.667L32.035 99.4275L32.035 86.5075C32.035 77.8375 24.98 70.7825 16.31 70.7825C7.63999 70.7825 0.584985 77.8375 0.584986 86.5075L0.584987 128.497C0.584988 129.517 1.34999 130.282 2.28499 130.282C3.21999 130.282 4.06999 129.517 4.06999 128.497L4.06999 114.557C4.06999 107.757 9.50999 102.232 16.31 102.232C23.025 102.232 28.55 107.757 28.55 114.557L28.55 128.497C28.55 129.177 28.89 129.772 29.485 130.112L57.535 144.052C58.045 144.392 58.725 144.307 59.235 143.967C59.745 143.712 60 143.117 60 142.522L60 114.557C60 114.472 60 114.472 60 114.472L60 72.4825C60 71.5475 59.235 70.7825 58.3 70.7825C57.365 70.7825 56.515 71.5475 56.515 72.4825ZM56.515 2.25784L56.515 41.4428L32.035 29.2028L32.035 16.2828C32.035 7.61285 24.98 0.557847 16.31 0.557847C7.63998 0.557848 0.584982 7.61285 0.584983 16.2828L0.584984 58.2729C0.584984 59.2929 1.34998 60.0579 2.28499 60.0579C3.21999 60.0579 4.06999 59.2929 4.06999 58.2729L4.06998 44.3328C4.06998 37.5329 9.50998 32.0078 16.31 32.0078C23.025 32.0078 28.55 37.5328 28.55 44.3328L28.55 58.2728C28.55 58.9528 28.89 59.5478 29.485 59.8878L57.535 73.8278C58.045 74.1678 58.725 74.0828 59.235 73.7428C59.745 73.4878 60 72.8928 60 72.2978L60 44.3328C60 44.2478 60 44.2478 60 44.2478L60 2.25784C60 1.32285 59.235 0.557845 58.3 0.557845C57.365 0.557845 56.515 1.32285 56.515 2.25784Z" fill="white"/>
<path d="M64.165 297L64.165 2.08786L68.33 2.08786L68.33 297L64.165 297Z" fill="white"/>
</svg>
