<svg width="70" height="15" viewBox="0 0 70 15" fill="none" xmlns="http://www.w3.org/2000/svg">
<path d="M0.617188 2.5H6.71094C6.76302 2.50651 6.78906 2.53255 6.78906 2.57812V4.14062C6.78906 4.24479 6.21615 5.40365 5.07031 7.61719C6.21615 8.41146 6.78906 9.60938 6.78906 11.2109C6.78906 12.9818 5.95573 14.2188 4.28906 14.9219C4.08073 14.974 3.82031 15 3.50781 15C2.10156 15 1.125 13.9323 0.578125 11.7969C0.552083 11.569 0.539062 11.3737 0.539062 11.2109V11.1328C0.545573 11.0807 0.571615 11.0547 0.617188 11.0547H1.94531C2.02344 11.0547 2.15365 11.5234 2.33594 12.4609C2.75911 13.112 3.1888 13.4375 3.625 13.4375C4.17839 13.4375 4.66016 13.0469 5.07031 12.2656C5.14844 11.9596 5.20052 11.5951 5.22656 11.1719C5.10938 9.83073 4.71875 9.03646 4.05469 8.78906C3.79427 8.73698 3.5599 8.71094 3.35156 8.71094H2.92188V8.67188L5.22656 4.0625H0.617188C0.565104 4.0625 0.539062 4.03646 0.539062 3.98438V2.57812C0.545573 2.52604 0.571615 2.5 0.617188 2.5ZM12.668 2.42188H18.7617C18.8138 2.42839 18.8398 2.45443 18.8398 2.5V4.10156C16.6263 9.39453 15.0508 13.0273 14.1133 15H12.6289L12.5508 14.9609C13.9701 11.7188 15.5456 8.0599 17.2773 3.98438H12.668C12.6159 3.98438 12.5898 3.95833 12.5898 3.90625V2.5C12.5964 2.44792 12.6224 2.42188 12.668 2.42188ZM24.7188 2.5H30.8125C30.8646 2.50651 30.8906 2.53255 30.8906 2.57812V3.98438C30.8906 4.03646 30.8646 4.0625 30.8125 4.0625H26.2031V7.1875H27.7266C29.4648 7.1875 30.5195 8.42448 30.8906 10.8984V11.1719C30.8906 12.9948 30.0573 14.2448 28.3906 14.9219C28.1823 14.974 27.9609 15 27.7266 15C26.112 15 25.0833 13.8021 24.6406 11.4062V11.0938L24.7188 11.0547H26.0469C26.1576 11.1458 26.2878 11.6016 26.4375 12.4219C26.8542 13.099 27.2839 13.4375 27.7266 13.4375C28.2214 13.4375 28.6771 13.112 29.0938 12.4609C29.25 12.0378 29.3281 11.6081 29.3281 11.1719V11.0156C29.3281 9.90234 28.9245 9.17318 28.1172 8.82812C27.8828 8.77604 27.7135 8.75 27.6094 8.75H24.7188C24.6667 8.75 24.6406 8.72396 24.6406 8.67188V2.57812C24.6471 2.52604 24.6732 2.5 24.7188 2.5ZM40.5195 2.5H41.9258C41.9779 2.50651 42.0039 2.53255 42.0039 2.57812V14.9219C42.0039 14.974 41.9779 15 41.9258 15H40.5195C40.4674 15 40.4414 14.974 40.4414 14.9219V4.17969C39.1719 5.39062 38.3906 6.11979 38.0977 6.36719L38.0586 6.28906V5.03906C38.0586 4.88932 38.3971 4.51172 39.0742 3.90625C39.4193 3.52865 39.901 3.0599 40.5195 2.5ZM60.1939 15V0.719999H63.9539C65.7006 0.719999 66.9939 1.07333 67.8339 1.78C68.6872 2.48667 69.1139 3.51333 69.1139 4.86C69.1139 5.76667 68.9072 6.54667 68.4939 7.2C68.0806 7.84 67.4672 8.33333 66.6539 8.68C65.8539 9.02667 64.8606 9.2 63.6739 9.2H61.9939V15H60.1939ZM58.4539 12.28V10.98H65.2939V12.28H58.4539ZM58.4539 9.2V7.68H63.0339V9.2H58.4539ZM63.4139 7.68C64.2272 7.68 64.9139 7.59333 65.4739 7.42C66.0472 7.24667 66.4872 6.96 66.7939 6.56C67.1006 6.16 67.2539 5.61333 67.2539 4.92C67.2539 4.01333 66.9739 3.34 66.4139 2.9C65.8539 2.46 64.9806 2.24 63.7939 2.24H61.9939V7.68H63.4139Z" fill="white"/>
</svg>
