<svg width="1490" height="114" viewBox="0 0 1490 114" fill="none" xmlns="http://www.w3.org/2000/svg">
<path d="M165.558 108.36L112.758 2.92C112.278 1.79999 111.158 0.999992 109.878 0.999992H57.2375C55.9575 0.999992 54.9975 1.63999 54.3575 2.59999C54.3575 2.76 54.3575 2.76 54.3575 2.76C54.3575 2.92 54.1975 2.92 54.1975 2.92L27.9575 55.56C27.7975 55.56 27.7975 55.56 27.7975 55.72L1.5575 108.36C0.7575 109.96 1.3975 111.88 2.9975 112.68C4.5975 113.48 6.5175 112.84 7.4775 111.24L32.9175 60.36H81.5575L106.998 111.24C107.158 111.88 107.638 112.2 108.118 112.52C108.598 112.84 109.238 113 109.718 113H109.878H162.518C163.798 113 164.758 112.52 165.398 111.56C166.037 110.6 166.037 109.32 165.558 108.36ZM36.1175 53.8L57.2375 11.72L78.1975 53.8H36.1175ZM298.551 57L324.151 5.8C324.631 4.83999 324.631 3.56 323.991 2.59999C323.351 1.63999 322.231 1.15999 321.111 1.15999H268.471H268.311C267.831 1.15999 267.351 1.32 267.031 1.48C266.871 1.63999 266.711 1.63999 266.551 1.63999C266.231 1.96 265.751 2.43999 265.591 2.92L239.991 53.8H166.391V4.36C166.391 2.59999 164.791 1.15999 163.031 1.15999C161.271 1.15999 159.831 2.59999 159.831 4.36V109.8C159.831 111.56 161.271 113.16 163.031 113.16C164.791 113.16 166.391 111.56 166.391 109.8V60.36H239.991L265.591 111.24C265.751 111.88 266.231 112.36 266.711 112.52C267.191 112.84 267.671 113 268.311 113L268.471 113.16H321.111C322.231 113.16 323.351 112.52 323.991 111.56C324.631 110.6 324.631 109.32 324.151 108.36L298.551 57ZM479.705 0.999992H321.625C319.865 0.999992 318.425 2.59999 318.425 4.36C318.425 6.11999 319.865 7.71999 321.625 7.71999H371.065V109.8C371.065 111.56 372.505 113 374.425 113H427.065C428.825 113 430.425 111.56 430.425 109.8V7.71999H479.705C481.625 7.71999 483.065 6.11999 483.065 4.36C483.065 2.59999 481.625 0.999992 479.705 0.999992ZM588.379 2.59999C587.899 1.63999 586.779 0.999992 585.659 0.999992H533.019C532.859 0.999992 532.859 1.15999 532.699 1.15999C532.219 1.15999 531.899 1.32 531.419 1.48C531.259 1.63999 531.259 1.63999 531.099 1.63999C530.619 1.96 530.299 2.43999 529.979 2.92L506.619 49.64L483.259 2.92C482.299 1.32 480.379 0.679996 478.779 1.48C477.179 2.27999 476.539 4.2 477.339 5.8L502.939 57L477.339 108.36C477.019 108.84 477.019 109.32 477.019 109.8C477.019 109.96 477.019 110.12 477.019 110.28C477.019 110.6 477.179 110.92 477.339 111.24C477.339 111.4 477.339 111.4 477.499 111.56C477.499 111.56 477.499 111.56 477.659 111.72C477.819 112.04 478.139 112.2 478.459 112.52L478.619 112.68C478.779 112.68 478.779 112.68 478.779 112.68C479.259 113 479.739 113.16 480.219 113.16H533.019C534.139 113.16 535.259 112.36 535.899 111.24L588.539 5.8C589.179 4.83999 589.019 3.56 588.379 2.59999ZM721.495 108.36L668.695 2.92C668.215 1.79999 667.095 0.999992 665.815 0.999992H613.175C611.895 0.999992 610.935 1.63999 610.295 2.59999C610.295 2.76 610.295 2.76 610.295 2.76C610.295 2.92 610.135 2.92 610.135 2.92L583.895 55.56C583.735 55.56 583.735 55.56 583.735 55.72L557.495 108.36C556.695 109.96 557.335 111.88 558.935 112.68C560.535 113.48 562.455 112.84 563.415 111.24L588.855 60.36H637.495L662.935 111.24C663.095 111.88 663.575 112.2 664.055 112.52C664.535 112.84 665.175 113 665.655 113H665.815H718.455C719.735 113 720.695 112.52 721.335 111.56C721.975 110.6 721.975 109.32 721.495 108.36ZM592.055 53.8L613.175 11.72L634.135 53.8H592.055ZM880.089 108.36L827.289 2.92C826.809 1.79999 825.689 0.999992 824.409 0.999992H771.769C770.489 0.999992 769.529 1.63999 768.889 2.59999C768.889 2.76 768.889 2.76 768.889 2.76L768.729 2.92L716.089 108.36C715.289 109.96 715.929 111.88 717.529 112.68C719.129 113.48 721.049 112.84 722.009 111.24L771.769 11.72L821.529 111.24C821.689 111.88 822.169 112.2 822.649 112.52C823.129 112.84 823.609 113 824.249 113H824.409H877.049C878.169 113 879.289 112.52 879.929 111.56C880.569 110.6 880.569 109.32 880.089 108.36ZM1009.24 53.64H962.042L985.883 5.8C986.203 5.31999 986.203 4.83999 986.203 4.36C986.203 4.2 986.203 4.03999 986.203 3.87999C986.203 3.56 986.043 3.23999 985.883 2.92C985.883 2.76 985.883 2.76 985.723 2.59999C985.723 2.59999 985.723 2.59999 985.563 2.43999C985.403 2.12 985.083 1.96 984.763 1.63999L984.603 1.48C984.443 1.48 984.443 1.48 984.443 1.48C983.963 1.15999 983.483 1.15999 983.003 1.15999V0.999992H930.203C929.083 0.999992 927.963 1.79999 927.323 2.92L874.682 108.36C874.042 109.32 874.202 110.6 874.842 111.56C875.322 112.52 876.442 113 877.562 113H1009.24C1025.72 113 1039 99.72 1039 83.4C1039 67.08 1025.72 53.64 1009.24 53.64ZM1009.24 106.44H935.643L958.683 60.36H1009.24C1022.04 60.36 1032.44 70.6 1032.44 83.4C1032.44 96.2 1022.04 106.44 1009.24 106.44ZM1168.46 0.999992H1115.82C1114.06 0.999992 1112.46 2.59999 1112.46 4.36V53.8H1013.74V4.36C1013.74 2.59999 1012.14 0.999992 1010.38 0.999992C1008.61 0.999992 1007.17 2.59999 1007.17 4.36V109.8C1007.17 111.56 1008.61 113 1010.38 113C1012.14 113 1013.74 111.56 1013.74 109.8V60.36H1112.46V109.8C1112.46 111.56 1114.06 113 1115.82 113H1168.46C1170.38 113 1171.82 111.56 1171.82 109.8V4.36C1171.82 2.59999 1170.38 0.999992 1168.46 0.999992ZM1274.41 0.999992H1221.77C1190.89 0.999992 1165.77 26.28 1165.77 57C1165.77 87.88 1190.89 113 1221.77 113H1274.41C1305.29 113 1330.41 87.88 1330.41 57C1330.41 26.28 1305.29 0.999992 1274.41 0.999992ZM1221.77 106.44C1194.41 106.44 1172.33 84.36 1172.33 57C1172.33 29.8 1194.41 7.71999 1221.77 7.71999C1248.97 7.71999 1271.05 29.8 1271.05 57C1271.05 84.36 1248.97 106.44 1221.77 106.44ZM1485.64 106.44H1385.64L1408.68 60.36H1459.4C1461.16 60.36 1462.6 58.92 1462.6 57C1462.6 55.24 1461.16 53.8 1459.4 53.8H1412.04L1435.08 7.71999H1459.4C1461.16 7.71999 1462.6 6.11999 1462.6 4.36C1462.6 2.59999 1461.16 0.999992 1459.4 0.999992H1380.2C1379.08 0.999992 1377.96 1.79999 1377.32 2.92L1324.68 108.36C1324.04 109.32 1324.2 110.6 1324.84 111.56C1325.32 112.52 1326.44 113 1327.56 113H1485.64C1487.56 113 1489 111.56 1489 109.8C1489 108.04 1487.56 106.44 1485.64 106.44Z" fill="#1F252D"/>
</svg>
