<svg width="587" height="76" viewBox="0 0 587 76" fill="none" xmlns="http://www.w3.org/2000/svg">
<g filter="url(#filter0_d_59_809)">
<path d="M16.1719 0.5C22.6823 0.5 27.5 3.95052 30.625 10.8516C31.1458 12.4466 31.4062 13.8138 31.4062 14.9531V62.6094C31.4062 62.8698 31.276 63 31.0156 63H23.9844C23.724 63 23.5938 62.8698 23.5938 62.6094V39.5625H7.96875V62.6094C7.96875 62.8698 7.83854 63 7.57812 63H0.546875C0.286458 63 0.15625 62.8698 0.15625 62.6094V17.6875C0.15625 9.54948 3.67188 4.08073 10.7031 1.28125C12.3958 0.760417 14.2188 0.5 16.1719 0.5ZM7.96875 17.4922V31.75H23.5938V15.1484C23.5938 12.5443 21.8359 10.3958 18.3203 8.70312C17.4089 8.44271 16.6276 8.3125 15.9766 8.3125C12.2656 8.3125 9.66146 10.3307 8.16406 14.3672C8.03385 15.7018 7.96875 16.7435 7.96875 17.4922ZM60.8008 0.5H67.832C68.0924 0.532552 68.2227 0.66276 68.2227 0.890625V31.3594H68.418L83.8477 0.695312L84.2383 0.5H91.2695C91.5299 0.5 91.6602 0.695312 91.6602 1.08594C81.8945 20.7474 77.0117 30.7083 77.0117 30.9688V31.75C83.3268 31.75 88.0794 35.6562 91.2695 43.4688C91.5299 45.0312 91.6602 46.2682 91.6602 47.1797V62.6094C91.6602 62.8698 91.5299 63 91.2695 63H84.2383C83.9779 63 83.8477 62.8698 83.8477 62.6094V47.375C83.8477 43.7617 81.9596 41.2227 78.1836 39.7578C77.9557 39.6276 77.6953 39.5625 77.4023 39.5625H68.2227V62.6094C68.2227 62.8698 68.0924 63 67.832 63H60.8008C60.5404 63 60.4102 62.8698 60.4102 62.6094V0.890625C60.4427 0.630208 60.5729 0.5 60.8008 0.5ZM121.055 0.5H151.523C151.784 0.532552 151.914 0.66276 151.914 0.890625V7.92188C151.914 8.18229 151.784 8.3125 151.523 8.3125H140.391V62.6094C140.391 62.8698 140.26 63 140 63H132.969C132.708 63 132.578 62.8698 132.578 62.6094V8.3125H121.055C120.794 8.3125 120.664 8.18229 120.664 7.92188V0.890625C120.697 0.630208 120.827 0.5 121.055 0.5ZM181.309 0.5H188.34C188.6 0.532552 188.73 0.66276 188.73 0.890625V23.7422C188.73 27.681 190.814 30.3503 194.98 31.75H196.738C200.189 31.75 202.467 30.1875 203.574 27.0625C204.095 25.5326 204.355 24.1654 204.355 22.9609V0.890625C204.388 0.630208 204.518 0.5 204.746 0.5H211.777C212.038 0.532552 212.168 0.66276 212.168 0.890625V47.375C212.168 55.2201 207.806 60.3633 199.082 62.8047C198.301 62.9349 197.324 63 196.152 63C188.763 63 183.75 58.7031 181.113 50.1094C180.983 48.4818 180.918 47.6354 180.918 47.5703L181.309 47.375H187.949C188.47 47.375 189.056 48.8073 189.707 51.6719C191.725 54.0156 194.199 55.1875 197.129 55.1875C200.286 55.1875 202.5 53.4948 203.77 50.1094C204.16 48.4492 204.355 47.2122 204.355 46.3984V37.6094H204.16C201.751 38.9115 199.212 39.5625 196.543 39.5625C188.796 39.5625 183.652 35.2656 181.113 26.6719C180.983 25.6628 180.918 24.556 180.918 23.3516V0.890625C180.951 0.630208 181.081 0.5 181.309 0.5ZM257.188 0.5C263.698 0.5 268.516 3.95052 271.641 10.8516C272.161 12.4466 272.422 13.8138 272.422 14.9531V62.6094C272.422 62.8698 272.292 63 272.031 63H265C264.74 63 264.609 62.8698 264.609 62.6094V39.5625H248.984V62.6094C248.984 62.8698 248.854 63 248.594 63H241.562C241.302 63 241.172 62.8698 241.172 62.6094V17.6875C241.172 9.54948 244.688 4.08073 251.719 1.28125C253.411 0.760417 255.234 0.5 257.188 0.5ZM248.984 17.4922V31.75H264.609V15.1484C264.609 12.5443 262.852 10.3958 259.336 8.70312C258.424 8.44271 257.643 8.3125 256.992 8.3125C253.281 8.3125 250.677 10.3307 249.18 14.3672C249.049 15.7018 248.984 16.7435 248.984 17.4922ZM317.637 0.5H332.285C332.546 0.532552 332.676 0.66276 332.676 0.890625V62.6094C332.676 62.8698 332.546 63 332.285 63H325.254C324.993 63 324.863 62.8698 324.863 62.6094V8.3125H317.246C313.372 8.3125 310.703 10.3307 309.238 14.3672V62.6094C309.238 62.8698 309.108 63 308.848 63H301.816C301.556 63 301.426 62.8698 301.426 62.6094V15.5391C301.426 8.34505 305.658 3.39714 314.121 0.695312C315.358 0.565104 316.53 0.5 317.637 0.5ZM362.07 0.5H369.102C369.362 0.532552 369.492 0.66276 369.492 0.890625V31.75H377.305C384.954 31.75 390.098 35.9167 392.734 44.25C392.865 45.0964 392.93 45.9427 392.93 46.7891V48.1562C392.93 55.1875 388.698 60.0703 380.234 62.8047C378.997 62.9349 377.826 63 376.719 63H362.07C361.81 63 361.68 62.8698 361.68 62.6094V0.890625C361.712 0.630208 361.842 0.5 362.07 0.5ZM369.492 39.5625V55.1875H377.109C380.658 55.1875 383.132 53.625 384.531 50.5C384.922 49.8164 385.117 49.1654 385.117 48.5469V46.3984C385.117 43.5013 383.424 41.418 380.039 40.1484C378.672 39.7578 377.305 39.5625 375.938 39.5625H369.492ZM422.324 0.5H429.355C429.616 0.532552 429.746 0.66276 429.746 0.890625V31.75H445.371V0.890625C445.404 0.630208 445.534 0.5 445.762 0.5H452.793C453.053 0.532552 453.184 0.66276 453.184 0.890625V62.6094C453.184 62.8698 453.053 63 452.793 63H445.762C445.501 63 445.371 62.8698 445.371 62.6094V39.5625H429.746V62.6094C429.746 62.8698 429.616 63 429.355 63H422.324C422.064 63 421.934 62.8698 421.934 62.6094V0.890625C421.966 0.630208 422.096 0.5 422.324 0.5ZM498.008 0.5C504.453 0.5 509.271 7.33594 512.461 21.0078C512.852 22.7331 513.177 26.3138 513.438 31.75C513.438 44.6406 510.117 54.4062 503.477 61.0469C501.556 62.349 499.538 63 497.422 63C491.009 63 486.191 56.1641 482.969 42.4922C482.448 39.3672 482.188 36.4375 482.188 33.7031V29.7969C482.188 19.6732 484.857 11.1445 490.195 4.21094C492.474 1.73698 495.078 0.5 498.008 0.5ZM490 30.1875V33.8984C490.879 48.0911 493.548 55.1875 498.008 55.1875C501.198 55.1875 503.607 49.6536 505.234 38.5859L505.625 31.75C504.811 16.125 502.077 8.3125 497.422 8.3125C494.329 8.3125 491.986 13.5208 490.391 23.9375C490.13 25.2721 490 27.3555 490 30.1875ZM542.832 0.5H573.301C573.561 0.532552 573.691 0.66276 573.691 0.890625V7.92188C573.691 8.18229 573.561 8.3125 573.301 8.3125H550.254V31.75H573.301C573.561 31.7826 573.691 31.9128 573.691 32.1406V39.1719C573.691 39.4323 573.561 39.5625 573.301 39.5625H550.254V55.1875H573.301C573.561 55.2201 573.691 55.3503 573.691 55.5781V62.6094C573.691 62.8698 573.561 63 573.301 63H542.832C542.572 63 542.441 62.8698 542.441 62.6094V0.890625C542.474 0.630208 542.604 0.5 542.832 0.5Z" fill="white"/>
</g>
<defs>
<filter id="filter0_d_59_809" x="0.15625" y="0.5" width="586.535" height="75.5" filterUnits="userSpaceOnUse" color-interpolation-filters="sRGB">
<feFlood flood-opacity="0" result="BackgroundImageFix"/>
<feColorMatrix in="SourceAlpha" type="matrix" values="0 0 0 0 0 0 0 0 0 0 0 0 0 0 0 0 0 0 127 0" result="hardAlpha"/>
<feOffset dx="9" dy="9"/>
<feGaussianBlur stdDeviation="2"/>
<feComposite in2="hardAlpha" operator="out"/>
<feColorMatrix type="matrix" values="0 0 0 0 0 0 0 0 0 0 0 0 0 0 0 0 0 0 0.25 0"/>
<feBlend mode="normal" in2="BackgroundImageFix" result="effect1_dropShadow_59_809"/>
<feBlend mode="normal" in="SourceGraphic" in2="effect1_dropShadow_59_809" result="shape"/>
</filter>
</defs>
</svg>
