<svg width="918" height="86" viewBox="0 0 918 86" fill="none" xmlns="http://www.w3.org/2000/svg">
<path d="M104.078 43L123.278 4.6C123.637 3.87999 123.637 2.92 123.158 2.19999C122.678 1.48 121.838 1.11999 120.998 1.11999H81.5175H81.3975C81.0375 1.11999 80.6775 1.24 80.4375 1.36C80.3175 1.48 80.1975 1.48 80.0775 1.48C79.8375 1.72 79.4775 2.07999 79.3575 2.44L60.1575 40.6H4.9575V3.52C4.9575 2.19999 3.7575 1.11999 2.4375 1.11999C1.1175 1.11999 0.0374998 2.19999 0.0374998 3.52V82.6C0.0374998 83.92 1.1175 85.12 2.4375 85.12C3.7575 85.12 4.9575 83.92 4.9575 82.6V45.52H60.1575L79.3575 83.68C79.4775 84.16 79.8375 84.52 80.1975 84.64C80.5575 84.88 80.9175 85 81.3975 85L81.5175 85.12H120.998C121.838 85.12 122.678 84.64 123.158 83.92C123.637 83.2 123.637 82.24 123.278 81.52L104.078 43ZM242.223 81.52L202.623 2.44C202.263 1.59999 201.423 0.999994 200.463 0.999994H160.983C160.023 0.999994 159.303 1.48 158.823 2.19999C158.823 2.32 158.823 2.32 158.823 2.32L158.703 2.44L119.223 81.52C118.623 82.72 119.103 84.16 120.303 84.76C121.503 85.36 122.943 84.88 123.663 83.68L160.983 9.04L198.303 83.68C198.423 84.16 198.783 84.4 199.143 84.64C199.503 84.88 199.863 85 200.343 85H200.463H239.943C240.783 85 241.623 84.64 242.103 83.92C242.583 83.2 242.583 82.24 242.223 81.52ZM361.168 81.52L321.568 2.44C321.208 1.59999 320.368 0.999994 319.408 0.999994H279.928C278.968 0.999994 278.248 1.48 277.768 2.19999C277.768 2.32 277.768 2.32 277.768 2.32C277.768 2.44 277.648 2.44 277.648 2.44L257.968 41.92C257.848 41.92 257.848 41.92 257.848 42.04L238.168 81.52C237.568 82.72 238.048 84.16 239.248 84.76C240.448 85.36 241.888 84.88 242.608 83.68L261.688 45.52H298.168L317.248 83.68C317.368 84.16 317.728 84.4 318.088 84.64C318.448 84.88 318.928 85 319.288 85H319.408H358.888C359.848 85 360.568 84.64 361.048 83.92C361.528 83.2 361.528 82.24 361.168 81.52ZM264.088 40.6L279.928 9.04L295.648 40.6H264.088ZM477.833 40.6C476.513 40.6 475.433 41.68 475.433 43C475.433 63.52 458.753 80.08 438.353 80.08C417.953 80.08 401.273 63.52 401.273 43C401.273 22.6 417.953 6.03999 438.353 6.03999C439.673 6.03999 440.873 4.83999 440.873 3.52C440.873 2.19999 439.673 0.999994 438.353 0.999994H398.873C375.713 0.999994 356.873 19.96 356.873 43C356.873 66.16 375.713 85 398.873 85H438.353C461.513 85 480.353 66.16 480.353 43C480.353 41.68 479.273 40.6 477.833 40.6ZM577.56 40.6C576.24 40.6 575.16 41.68 575.16 43C575.16 63.52 558.48 80.08 538.08 80.08C517.68 80.08 501 63.52 501 43C501 22.6 517.68 6.03999 538.08 6.03999C539.4 6.03999 540.6 4.83999 540.6 3.52C540.6 2.19999 539.4 0.999994 538.08 0.999994H498.6C475.44 0.999994 456.6 19.96 456.6 43C456.6 66.16 475.44 85 498.6 85H538.08C561.24 85 580.08 66.16 580.08 43C580.08 41.68 579 40.6 577.56 40.6ZM679.567 81.52L639.967 2.44C639.487 1.36 638.287 0.879996 637.207 1.11999C636.127 1.36 635.287 2.44 635.287 3.52V72.16L600.487 2.44C600.247 2.07999 600.007 1.72 599.647 1.48C599.527 1.48 599.527 1.48 599.407 1.36C599.047 1.24 598.807 1.11999 598.447 1.11999C598.327 1.11999 598.327 0.999994 598.207 0.999994H558.727C557.887 0.999994 557.047 1.48 556.687 2.19999C556.207 2.92 556.087 3.87999 556.567 4.6L596.047 83.68C596.527 84.52 597.367 85 598.207 85H637.807H637.927C638.047 85 638.167 85 638.407 85C638.527 85 638.647 84.88 638.887 84.76C638.887 84.76 639.007 84.76 639.007 84.64C639.367 84.52 639.607 84.28 639.847 83.92C639.967 83.8 639.967 83.8 639.967 83.8C640.087 83.44 640.207 83.2 640.207 82.84C640.207 82.72 640.207 82.72 640.207 82.6V13.96L675.127 83.68C675.607 84.52 676.447 85 677.287 85C677.647 85 678.127 85 678.487 84.76C679.687 84.16 680.167 82.72 679.567 81.52ZM779.312 43L798.512 4.6C798.872 3.87999 798.872 2.92 798.392 2.19999C797.912 1.48 797.072 1.11999 796.232 1.11999H756.752H756.632C756.272 1.11999 755.912 1.24 755.672 1.36C755.552 1.48 755.432 1.48 755.312 1.48C755.072 1.72 754.712 2.07999 754.592 2.44L735.392 40.6H680.192V3.52C680.192 2.19999 678.992 1.11999 677.672 1.11999C676.352 1.11999 675.272 2.19999 675.272 3.52V82.6C675.272 83.92 676.352 85.12 677.672 85.12C678.992 85.12 680.192 83.92 680.192 82.6V45.52H735.392L754.592 83.68C754.712 84.16 755.072 84.52 755.432 84.64C755.792 84.88 756.152 85 756.632 85L756.752 85.12H796.232C797.072 85.12 797.912 84.64 798.392 83.92C798.872 83.2 798.872 82.24 798.512 81.52L779.312 43ZM917.457 81.52L877.857 2.44C877.497 1.59999 876.657 0.999994 875.697 0.999994H836.217C835.257 0.999994 834.537 1.48 834.057 2.19999C834.057 2.32 834.057 2.32 834.057 2.32C834.057 2.44 833.937 2.44 833.937 2.44L814.257 41.92C814.137 41.92 814.137 41.92 814.137 42.04L794.457 81.52C793.857 82.72 794.337 84.16 795.537 84.76C796.737 85.36 798.177 84.88 798.897 83.68L817.977 45.52H854.457L873.537 83.68C873.657 84.16 874.017 84.4 874.377 84.64C874.737 84.88 875.217 85 875.577 85H875.697H915.177C916.137 85 916.857 84.64 917.337 83.92C917.817 83.2 917.817 82.24 917.457 81.52ZM820.377 40.6L836.217 9.04L851.937 40.6H820.377Z" fill="#1F252D"/>
</svg>
