<svg width="1145" height="93" viewBox="0 0 1145 93" fill="none" xmlns="http://www.w3.org/2000/svg">
<path d="M113.225 46.5L134.025 4.9C134.415 4.11999 134.415 3.08 133.895 2.29999C133.375 1.51999 132.465 1.12999 131.555 1.12999H88.7852H88.6552C88.2652 1.12999 87.8752 1.26 87.6152 1.39C87.4852 1.51999 87.3552 1.51999 87.2252 1.51999C86.9652 1.78 86.5752 2.16999 86.4452 2.56L65.6452 43.9H5.84523V3.73C5.84523 2.29999 4.54523 1.12999 3.11523 1.12999C1.68523 1.12999 0.515234 2.29999 0.515234 3.73V89.4C0.515234 90.83 1.68523 92.13 3.11523 92.13C4.54523 92.13 5.84523 90.83 5.84523 89.4V49.23H65.6452L86.4452 90.57C86.5752 91.09 86.9652 91.48 87.3552 91.61C87.7452 91.87 88.1352 92 88.6552 92L88.7852 92.13H131.555C132.465 92.13 133.375 91.61 133.895 90.83C134.415 90.05 134.415 89.01 134.025 88.23L113.225 46.5ZM217.643 0.999994H174.873C149.783 0.999994 129.373 21.54 129.373 46.5C129.373 71.59 149.783 92 174.873 92H217.643C242.733 92 263.143 71.59 263.143 46.5C263.143 21.54 242.733 0.999994 217.643 0.999994ZM174.873 86.67C152.643 86.67 134.703 68.73 134.703 46.5C134.703 24.4 152.643 6.45999 174.873 6.45999C196.973 6.45999 214.913 24.4 214.913 46.5C214.913 68.73 196.973 86.67 174.873 86.67ZM391.74 88.23L348.84 2.56C348.45 1.64999 347.54 0.999994 346.5 0.999994H303.73C302.69 0.999994 301.91 1.51999 301.39 2.29999C301.39 2.43 301.39 2.43 301.39 2.43L301.26 2.56L258.49 88.23C257.84 89.53 258.36 91.09 259.66 91.74C260.96 92.39 262.52 91.87 263.3 90.57L303.73 9.71L344.16 90.57C344.29 91.09 344.68 91.35 345.07 91.61C345.46 91.87 345.85 92 346.37 92H346.5H389.27C390.18 92 391.09 91.61 391.61 90.83C392.13 90.05 392.13 89.01 391.74 88.23ZM520.598 88.23L477.698 2.56C477.308 1.64999 476.398 0.999994 475.358 0.999994H432.588C431.548 0.999994 430.768 1.51999 430.248 2.29999C430.248 2.43 430.248 2.43 430.248 2.43L430.118 2.56L387.347 88.23C386.697 89.53 387.217 91.09 388.517 91.74C389.818 92.39 391.378 91.87 392.158 90.57L432.588 9.71L473.018 90.57C473.148 91.09 473.538 91.35 473.928 91.61C474.318 91.87 474.708 92 475.228 92H475.358H518.128C519.038 92 519.948 91.61 520.468 90.83C520.987 90.05 520.987 89.01 520.598 88.23ZM646.985 86.67H565.735L584.455 49.23H625.665C627.095 49.23 628.265 48.06 628.265 46.5C628.265 45.07 627.095 43.9 625.665 43.9H587.185L605.905 6.45999H625.665C627.095 6.45999 628.265 5.15999 628.265 3.73C628.265 2.29999 627.095 0.999994 625.665 0.999994H561.315C560.405 0.999994 559.495 1.64999 558.975 2.56L516.205 88.23C515.685 89.01 515.815 90.05 516.335 90.83C516.725 91.61 517.635 92 518.545 92H646.985C648.545 92 649.715 90.83 649.715 89.4C649.715 87.97 648.545 86.67 646.985 86.67ZM757.385 46.5L778.185 4.9C778.575 4.11999 778.575 3.08 778.055 2.29999C777.535 1.51999 776.625 1.12999 775.715 1.12999H732.945H732.815C732.425 1.12999 732.035 1.26 731.775 1.39C731.645 1.51999 731.515 1.51999 731.385 1.51999C731.125 1.78 730.735 2.16999 730.605 2.56L709.805 43.9H650.005V3.73C650.005 2.29999 648.705 1.12999 647.275 1.12999C645.845 1.12999 644.675 2.29999 644.675 3.73V89.4C644.675 90.83 645.845 92.13 647.275 92.13C648.705 92.13 650.005 90.83 650.005 89.4V49.23H709.805L730.605 90.57C730.735 91.09 731.125 91.48 731.515 91.61C731.905 91.87 732.295 92 732.815 92L732.945 92.13H775.715C776.625 92.13 777.535 91.61 778.055 90.83C778.575 90.05 778.575 89.01 778.185 88.23L757.385 46.5ZM905.873 1.39C904.443 0.739997 902.883 1.26 902.233 2.56L860.113 86.67H823.323L864.143 4.9C864.403 4.51 864.403 4.11999 864.403 3.73C864.403 3.6 864.403 3.46999 864.403 3.33999C864.403 3.08 864.273 2.81999 864.143 2.56C864.143 2.43 864.143 2.43 864.013 2.29999C864.013 2.29999 864.013 2.29999 864.013 2.16999C863.753 1.91 863.493 1.78 863.233 1.51999L863.103 1.39C862.973 1.39 862.973 1.39 862.973 1.39C862.583 1.12999 862.193 1.12999 861.803 1.12999V0.999994H818.903C817.993 0.999994 817.083 1.64999 816.563 2.56L773.793 88.23C773.273 89.01 773.403 90.05 773.923 90.83C774.313 91.61 775.223 92 776.133 92H861.803H883.253C884.683 92 885.853 90.83 885.853 89.4C885.853 87.97 884.683 86.67 883.253 86.67H866.093L907.043 4.9C907.693 3.6 907.173 2.04 905.873 1.39ZM1035.9 88.23L993 2.56C992.48 1.39 991.18 0.869995 990.01 1.12999C988.84 1.39 987.93 2.56 987.93 3.73V78.09L950.23 2.56C949.97 2.16999 949.71 1.78 949.32 1.51999C949.19 1.51999 949.19 1.51999 949.06 1.39C948.67 1.26 948.41 1.12999 948.02 1.12999C947.89 1.12999 947.89 0.999994 947.76 0.999994H904.99C904.08 0.999994 903.17 1.51999 902.78 2.29999C902.26 3.08 902.13 4.11999 902.65 4.9L945.42 90.57C945.94 91.48 946.85 92 947.76 92H990.66H990.79C990.92 92 991.05 92 991.31 92C991.44 92 991.57 91.87 991.83 91.74C991.83 91.74 991.96 91.74 991.96 91.61C992.35 91.48 992.61 91.22 992.87 90.83C993 90.7 993 90.7 993 90.7C993.13 90.31 993.26 90.05 993.26 89.66C993.26 89.53 993.26 89.53 993.26 89.4V15.04L1031.09 90.57C1031.61 91.48 1032.52 92 1033.43 92C1033.82 92 1034.34 92 1034.73 91.74C1036.03 91.09 1036.55 89.53 1035.9 88.23ZM1143.94 88.23L1101.04 2.56C1100.52 1.39 1099.22 0.869995 1098.05 1.12999C1096.88 1.39 1095.97 2.56 1095.97 3.73V78.09L1058.27 2.56C1058.01 2.16999 1057.75 1.78 1057.36 1.51999C1057.23 1.51999 1057.23 1.51999 1057.1 1.39C1056.71 1.26 1056.45 1.12999 1056.06 1.12999C1055.93 1.12999 1055.93 0.999994 1055.8 0.999994H1013.03C1012.12 0.999994 1011.21 1.51999 1010.82 2.29999C1010.3 3.08 1010.17 4.11999 1010.69 4.9L1053.46 90.57C1053.98 91.48 1054.89 92 1055.8 92H1098.7H1098.83C1098.96 92 1099.09 92 1099.35 92C1099.48 92 1099.61 91.87 1099.87 91.74C1099.87 91.74 1100 91.74 1100 91.61C1100.39 91.48 1100.65 91.22 1100.91 90.83C1101.04 90.7 1101.04 90.7 1101.04 90.7C1101.17 90.31 1101.3 90.05 1101.3 89.66C1101.3 89.53 1101.3 89.53 1101.3 89.4V15.04L1139.13 90.57C1139.65 91.48 1140.56 92 1141.47 92C1141.86 92 1142.38 92 1142.77 91.74C1144.07 91.09 1144.59 89.53 1143.94 88.23Z" fill="#1F252D"/>
</svg>
