<svg width="764" height="72" viewBox="0 0 764 72" fill="none" xmlns="http://www.w3.org/2000/svg">
<path d="M84.7 36L100.7 4C101 3.39999 101 2.6 100.6 1.99999C100.2 1.4 99.5 1.09999 98.8 1.09999H65.9H65.8C65.5 1.09999 65.2 1.2 65 1.3C64.9 1.4 64.8 1.4 64.7 1.4C64.5 1.6 64.2 1.9 64.1 2.2L48.1 34H2.1V3.1C2.1 1.99999 1.1 1.09999 0 1.09999C-1.1 1.09999 -2 1.99999 -2 3.1V69C-2 70.1 -1.1 71.1 0 71.1C1.1 71.1 2.1 70.1 2.1 69V38.1H48.1L64.1 69.9C64.2 70.3 64.5 70.6 64.8 70.7C65.1 70.9 65.4 71 65.8 71L65.9 71.1H98.8C99.5 71.1 100.2 70.7 100.6 70.1C101 69.5 101 68.7 100.7 68.1L84.7 36ZM165.021 0.999995H132.121C112.821 0.999995 97.1211 16.8 97.1211 36C97.1211 55.3 112.821 71 132.121 71H165.021C184.321 71 200.021 55.3 200.021 36C200.021 16.8 184.321 0.999995 165.021 0.999995ZM132.121 66.9C115.021 66.9 101.221 53.1 101.221 36C101.221 19 115.021 5.19999 132.121 5.19999C149.121 5.19999 162.921 19 162.921 36C162.921 53.1 149.121 66.9 132.121 66.9ZM297.042 0.999995H264.142C263.042 0.999995 262.042 1.99999 262.042 3.1V34H200.342V3.1C200.342 1.99999 199.342 0.999995 198.242 0.999995C197.142 0.999995 196.242 1.99999 196.242 3.1V69C196.242 70.1 197.142 71 198.242 71C199.342 71 200.342 70.1 200.342 69V38.1H262.042V69C262.042 70.1 263.042 71 264.142 71H297.042C298.242 71 299.142 70.1 299.142 69V3.1C299.142 1.99999 298.242 0.999995 297.042 0.999995ZM396.163 0.999995H297.363C296.263 0.999995 295.363 1.99999 295.363 3.1C295.363 4.2 296.263 5.19999 297.363 5.19999H328.263V69C328.263 70.1 329.163 71 330.363 71H363.263C364.363 71 365.363 70.1 365.363 69V5.19999H396.163C397.363 5.19999 398.263 4.2 398.263 3.1C398.263 1.99999 397.363 0.999995 396.163 0.999995ZM481.169 68.1L448.169 2.2C447.869 1.49999 447.169 0.999995 446.369 0.999995H413.469C412.669 0.999995 412.069 1.4 411.669 1.99999C411.669 2.1 411.669 2.1 411.669 2.1C411.669 2.2 411.569 2.2 411.569 2.2L395.169 35.1C395.069 35.1 395.069 35.1 395.069 35.2L378.669 68.1C378.169 69.1 378.569 70.3 379.569 70.8C380.569 71.3 381.769 70.9 382.369 69.9L398.269 38.1H428.669L444.569 69.9C444.669 70.3 444.969 70.5 445.269 70.7C445.569 70.9 445.969 71 446.269 71H446.369H479.269C480.069 71 480.669 70.7 481.069 70.1C481.469 69.5 481.469 68.7 481.169 68.1ZM400.269 34L413.469 7.7L426.569 34H400.269ZM564.29 36L580.29 4C580.59 3.39999 580.59 2.6 580.19 1.99999C579.79 1.4 579.09 1.09999 578.39 1.09999H545.49H545.39C545.09 1.09999 544.79 1.2 544.59 1.3C544.49 1.4 544.39 1.4 544.29 1.4C544.09 1.6 543.79 1.9 543.69 2.2L527.69 34H481.69V3.1C481.69 1.99999 480.69 1.09999 479.59 1.09999C478.49 1.09999 477.59 1.99999 477.59 3.1V69C477.59 70.1 478.49 71.1 479.59 71.1C480.69 71.1 481.69 70.1 481.69 69V38.1H527.69L543.69 69.9C543.79 70.3 544.09 70.6 544.39 70.7C544.69 70.9 544.99 71 545.39 71L545.49 71.1H578.39C579.09 71.1 579.79 70.7 580.19 70.1C580.59 69.5 580.59 68.7 580.29 68.1L564.29 36ZM677.511 0.999995H578.711C577.611 0.999995 576.711 1.99999 576.711 3.1C576.711 4.2 577.611 5.19999 578.711 5.19999H609.611V69C609.611 70.1 610.511 71 611.711 71H644.611C645.711 71 646.711 70.1 646.711 69V5.19999H677.511C678.711 5.19999 679.611 4.2 679.611 3.1C679.611 1.99999 678.711 0.999995 677.511 0.999995ZM747.416 34.2L762.516 4C763.016 3 762.616 1.8 761.616 1.3C760.516 0.799998 759.316 1.2 758.816 2.2L742.916 33.9H714.616L729.516 4C729.716 3.7 729.716 3.39999 729.716 3.1C729.716 3 729.716 2.89999 729.716 2.8C729.716 2.6 729.616 2.4 729.516 2.2C729.516 2.1 729.516 2.1 729.416 1.99999C729.416 1.99999 729.416 1.99999 729.316 1.9C729.216 1.7 729.016 1.6 728.816 1.4L728.716 1.3C728.616 1.3 728.616 1.3 728.616 1.3C728.316 1.09999 728.016 1.09999 727.716 1.09999V0.999995H694.716C694.016 0.999995 693.316 1.49999 692.916 2.2L660.016 68.1C659.616 68.7 659.716 69.5 660.116 70.1C660.416 70.7 661.116 71 661.816 71H727.716H744.116C754.416 71 762.716 62.7 762.716 52.5C762.716 43.4 756.116 35.8 747.416 34.2ZM726.416 66.9H698.116L712.516 38.1H740.916L726.416 66.9ZM744.116 66.9H731.016L745.416 38.1C752.816 38.8 758.616 45 758.616 52.5C758.616 60.5 752.116 66.9 744.116 66.9Z" fill="#1F252D"/>
</svg>
