<svg width="500" height="127" viewBox="0 0 500 127" fill="none" xmlns="http://www.w3.org/2000/svg">
<g filter="url(#filter0_d_548_1335)">
<path d="M1.02344 0.25C5.30729 9 8.77083 15.9727 11.4141 21.168C11.528 21.6237 11.6647 21.8516 11.8242 21.8516C13.6927 17.8867 17.2018 10.7773 22.3516 0.523438H22.4883C22.6706 0.546224 22.7617 0.63737 22.7617 0.796875V43.7266C22.7617 43.9089 22.6706 44 22.4883 44H17.4297C17.2474 44 17.1562 43.9089 17.1562 43.7266V17.3398H16.8828C16.7005 17.5221 15.4245 20.1654 13.0547 25.2695C12.599 26.1354 12.1432 26.819 11.6875 27.3203H11.5508C10.8444 26.2266 9.24935 22.8997 6.76562 17.3398H6.35547V43.7266C6.35547 43.9089 6.26432 44 6.08203 44H1.02344C0.841146 44 0.75 43.9089 0.75 43.7266V0.523438C0.772786 0.341146 0.863932 0.25 1.02344 0.25ZM41.2871 0.25H46.209C46.3913 0.272786 46.4824 0.363932 46.4824 0.523438V22.125H51.9512C57.2376 22.125 60.7923 24.9961 62.6152 30.7383V31.5586H62.8887V0.523438C62.9115 0.341146 63.0026 0.25 63.1621 0.25H68.084C68.2663 0.272786 68.3574 0.363932 68.3574 0.523438V43.7266C68.3574 43.9089 68.2663 44 68.084 44H63.1621C62.9798 44 62.8887 43.9089 62.8887 43.7266V34.5664H62.6152V34.8398C62.6152 38.7363 59.7441 41.7441 54.002 43.8633C52.931 43.9544 52.1562 44 51.6777 44H41.2871C41.1048 44 41.0137 43.9089 41.0137 43.7266V0.523438C41.0365 0.341146 41.1276 0.25 41.2871 0.25ZM46.4824 27.5938V38.5312H51.8145C54.5488 38.5312 56.4173 37.0729 57.4199 34.1562V33.0625C57.4199 30.3965 56.0983 28.6647 53.4551 27.8672C52.4297 27.6849 51.7005 27.5938 51.2676 27.5938H46.4824ZM127.693 0.25H138.631C143.439 0.25 146.811 3.4401 148.748 9.82031C149.113 11.0736 149.295 12.2129 149.295 13.2383V14.1953C149.295 18.4336 147.882 21.9427 145.057 24.7227C146.31 25.1784 147.495 26.5456 148.611 28.8242C149.067 30.0775 149.295 31.3079 149.295 32.5156V33.6094C149.295 38.4857 146.378 41.9036 140.545 43.8633C139.839 43.9544 139.064 44 138.221 44H127.693C127.511 44 127.42 43.9089 127.42 43.7266V0.523438C127.443 0.341146 127.534 0.25 127.693 0.25ZM132.889 5.71875V22.125H137.264C140.978 22.125 143.165 19.6641 143.826 14.7422V13.9219C143.826 11.3926 142.915 9.02279 141.092 6.8125C140.226 6.08333 139.132 5.71875 137.811 5.71875H132.889ZM132.889 27.5938V38.5312H136.717C140.271 38.5312 142.505 37.3919 143.416 35.1133L143.826 32.6523C143.826 30.4421 142.277 28.8014 139.178 27.7305C138.13 27.6393 137.127 27.5938 136.17 27.5938H132.889ZM180.672 0.25C185.343 0.25 188.761 2.75651 190.926 7.76953C191.199 8.79492 191.382 9.88867 191.473 11.0508L191.199 11.1875H186.277C186.072 11.1875 185.799 10.3672 185.457 8.72656C184.181 6.72135 182.449 5.71875 180.262 5.71875C177.846 5.71875 176.115 7.17708 175.066 10.0938V33.7461C175.066 35.569 176.297 37.0729 178.758 38.2578C179.396 38.4401 179.943 38.5312 180.398 38.5312C183.019 38.5312 184.842 37.1185 185.867 34.293C185.867 33.4727 186.004 33.0625 186.277 33.0625H191.199L191.473 33.1992C191.473 37.7565 189.012 41.1745 184.09 43.4531C182.905 43.8177 181.629 44 180.262 44C175.704 44 172.332 41.5846 170.145 36.7539C169.78 35.6829 169.598 34.7259 169.598 33.8828V10.3672C169.598 6.49349 171.876 3.34896 176.434 0.933594C177.755 0.477865 179.168 0.25 180.672 0.25ZM212.049 0.25H233.377C233.559 0.272786 233.65 0.363932 233.65 0.523438V5.44531C233.65 5.6276 233.559 5.71875 233.377 5.71875H217.244V22.125H233.377C233.559 22.1478 233.65 22.2389 233.65 22.3984V27.3203C233.65 27.5026 233.559 27.5938 233.377 27.5938H217.244V38.5312H233.377C233.559 38.554 233.65 38.6452 233.65 38.8047V43.7266C233.65 43.9089 233.559 44 233.377 44H212.049C211.867 44 211.775 43.9089 211.775 43.7266V0.523438C211.798 0.341146 211.889 0.25 212.049 0.25ZM254.227 0.25H275.555C275.737 0.272786 275.828 0.363932 275.828 0.523438V5.44531C275.828 5.6276 275.737 5.71875 275.555 5.71875H259.422V43.7266C259.422 43.9089 259.331 44 259.148 44H254.227C254.044 44 253.953 43.9089 253.953 43.7266V0.523438C253.976 0.341146 254.067 0.25 254.227 0.25ZM306.795 0.25H317.049C317.231 0.272786 317.322 0.363932 317.322 0.523438V38.5312H321.15C321.333 38.554 321.424 38.6452 321.424 38.8047V43.7266C321.424 43.9089 321.333 44 321.15 44H291.893C291.71 44 291.619 43.9089 291.619 43.7266V38.8047C291.642 38.6224 291.733 38.5312 291.893 38.5312H295.447V10.7773C295.447 5.74154 298.41 2.27799 304.334 0.386719C305.2 0.295573 306.02 0.25 306.795 0.25ZM300.916 38.5312H311.854V5.71875H306.521C303.81 5.71875 301.941 7.13151 300.916 9.95703V38.5312ZM349.52 0.25C354.077 0.25 357.449 2.66536 359.637 7.49609C360.001 8.61263 360.184 9.56966 360.184 10.3672V43.7266C360.184 43.9089 360.092 44 359.91 44H354.988C354.806 44 354.715 43.9089 354.715 43.7266V27.5938H343.777V43.7266C343.777 43.9089 343.686 44 343.504 44H338.582C338.4 44 338.309 43.9089 338.309 43.7266V12.2812C338.309 6.58464 340.77 2.75651 345.691 0.796875C346.876 0.432292 348.152 0.25 349.52 0.25ZM343.777 12.1445V22.125H354.715V10.5039C354.715 8.68099 353.484 7.17708 351.023 5.99219C350.385 5.8099 349.839 5.71875 349.383 5.71875C346.785 5.71875 344.962 7.13151 343.914 9.95703C343.823 10.8913 343.777 11.6204 343.777 12.1445ZM422.938 0.25H427.859C428.042 0.272786 428.133 0.363932 428.133 0.523438V22.125H439.07V0.523438C439.093 0.341146 439.184 0.25 439.344 0.25H444.266C444.448 0.272786 444.539 0.363932 444.539 0.523438V43.7266C444.539 43.9089 444.448 44 444.266 44H439.344C439.161 44 439.07 43.9089 439.07 43.7266V27.5938H428.133V43.7266C428.133 43.9089 428.042 44 427.859 44H422.938C422.755 44 422.664 43.9089 422.664 43.7266V0.523438C422.687 0.341146 422.778 0.25 422.938 0.25ZM476.053 0.25C480.61 0.25 483.982 2.66536 486.17 7.49609C486.535 8.61263 486.717 9.56966 486.717 10.3672V43.7266C486.717 43.9089 486.626 44 486.443 44H481.521C481.339 44 481.248 43.9089 481.248 43.7266V27.5938H470.311V43.7266C470.311 43.9089 470.219 44 470.037 44H465.115C464.933 44 464.842 43.9089 464.842 43.7266V12.2812C464.842 6.58464 467.303 2.75651 472.225 0.796875C473.41 0.432292 474.686 0.25 476.053 0.25ZM470.311 12.1445V22.125H481.248V10.5039C481.248 8.68099 480.018 7.17708 477.557 5.99219C476.919 5.8099 476.372 5.71875 475.916 5.71875C473.318 5.71875 471.495 7.13151 470.447 9.95703C470.356 10.8913 470.311 11.6204 470.311 12.1445ZM11.9609 70.25C16.6322 70.25 20.0501 72.7565 22.2148 77.7695C22.4883 78.7949 22.6706 79.8887 22.7617 81.0508L22.4883 81.1875H17.5664C17.3613 81.1875 17.0879 80.3672 16.7461 78.7266C15.4701 76.7214 13.7383 75.7188 11.5508 75.7188C9.13542 75.7188 7.40365 77.1771 6.35547 80.0938V103.746C6.35547 105.569 7.58594 107.073 10.0469 108.258C10.6849 108.44 11.2318 108.531 11.6875 108.531C14.3079 108.531 16.1309 107.118 17.1562 104.293C17.1562 103.473 17.293 103.062 17.5664 103.062H22.4883L22.7617 103.199C22.7617 107.757 20.3008 111.174 15.3789 113.453C14.194 113.818 12.918 114 11.5508 114C6.99349 114 3.62109 111.585 1.43359 106.754C1.06901 105.683 0.886719 104.726 0.886719 103.883V80.3672C0.886719 76.4935 3.16536 73.349 7.72266 70.9336C9.04427 70.4779 10.457 70.25 11.9609 70.25ZM43.3379 70.25H54.2754C59.0833 70.25 62.4557 73.4401 64.3926 79.8203C64.7572 81.0736 64.9395 82.2129 64.9395 83.2383V84.1953C64.9395 88.4336 63.5267 91.9427 60.7012 94.7227C61.9544 95.1784 63.1393 96.5456 64.2559 98.8242C64.7116 100.077 64.9395 101.308 64.9395 102.516V103.609C64.9395 108.486 62.0228 111.904 56.1895 113.863C55.4831 113.954 54.7083 114 53.8652 114H43.3379C43.1556 114 43.0645 113.909 43.0645 113.727V70.5234C43.0872 70.3411 43.1784 70.25 43.3379 70.25ZM48.5332 75.7188V92.125H52.9082C56.6224 92.125 58.8099 89.6641 59.4707 84.7422V83.9219C59.4707 81.3926 58.5592 79.0228 56.7363 76.8125C55.8704 76.0833 54.7767 75.7188 53.4551 75.7188H48.5332ZM48.5332 97.5938V108.531H52.3613C55.916 108.531 58.1491 107.392 59.0605 105.113L59.4707 102.652C59.4707 100.442 57.9212 98.8014 54.8223 97.7305C53.7741 97.6393 52.7715 97.5938 51.8145 97.5938H48.5332ZM106.844 69.9766C107.003 69.9766 107.094 70.0677 107.117 70.25V113.453C107.117 113.635 107.026 113.727 106.844 113.727H101.922C101.74 113.727 101.648 113.635 101.648 113.453V97.5938H101.512L96.7266 104.84C93.5137 109.876 91.4173 112.929 90.4375 114H85.5156C85.3333 114 85.2422 113.909 85.2422 113.727V113.59C89.8451 106.708 93.3997 101.331 95.9062 97.457C95.9062 97.3431 95.2682 97.252 93.9922 97.1836C88.1589 95.3379 85.2422 91.7376 85.2422 86.3828V81.4609C85.2422 78.248 86.2904 75.5592 88.3867 73.3945C89.8678 71.1159 93.1491 69.9766 98.2305 69.9766H106.844ZM101.648 75.4453H95.2227C92.2148 76.3796 90.7109 78.2936 90.7109 81.1875V87.3398C91.6224 90.3477 93.3542 91.8516 95.9062 91.8516H101.648V75.4453ZM138.631 70.25H138.904C143.781 70.25 147.199 73.9414 149.158 81.3242C149.249 81.8939 149.295 82.5319 149.295 83.2383V84.7422C149.295 88.1146 148.019 91.3503 145.467 94.4492C148.019 97.0924 149.295 99.8268 149.295 102.652V103.609C149.295 108.531 146.333 111.949 140.408 113.863C139.451 113.954 138.676 114 138.084 114C132.82 114 129.311 110.901 127.557 104.703V103.336C127.579 103.154 127.671 103.062 127.83 103.062H132.479C132.729 103.154 133.185 104.247 133.846 106.344C135.213 107.802 136.808 108.531 138.631 108.531C141.274 108.531 142.96 107.073 143.689 104.156L143.826 102.789C143.826 100.807 142.732 99.166 140.545 97.8672C139.087 97.6621 137.685 97.4798 136.341 97.3203L136.409 92.6377C137.708 92.6149 139.451 91.9427 141.639 90.6211C143.097 88.7754 143.826 86.7246 143.826 84.4688V83.1016C143.826 79.6836 142.505 77.3594 139.861 76.1289C139.041 75.8555 138.494 75.7188 138.221 75.7188C135.532 75.7188 133.663 78.4076 132.615 83.7852H127.693C127.511 83.7852 127.42 83.694 127.42 83.5117C127.42 77.4277 130.245 73.1439 135.896 70.6602C136.557 70.3867 137.469 70.25 138.631 70.25ZM174.793 70.25C174.952 70.25 175.044 70.3411 175.066 70.5234V98.6875C175.271 98.5736 180.649 89.1855 191.199 70.5234H191.473V113.727C191.473 113.909 191.382 114 191.199 114H186.277C186.095 114 186.004 113.909 186.004 113.727V85.2891H185.867L169.871 113.59H169.598V70.5234C169.598 70.3639 169.689 70.2728 169.871 70.25H174.793Z" fill="white"/>
</g>
<defs>
<filter id="filter0_d_548_1335" x="0.75" y="0.25" width="498.967" height="126.75" filterUnits="userSpaceOnUse" color-interpolation-filters="sRGB">
<feFlood flood-opacity="0" result="BackgroundImageFix"/>
<feColorMatrix in="SourceAlpha" type="matrix" values="0 0 0 0 0 0 0 0 0 0 0 0 0 0 0 0 0 0 127 0" result="hardAlpha"/>
<feOffset dx="9" dy="9"/>
<feGaussianBlur stdDeviation="2"/>
<feComposite in2="hardAlpha" operator="out"/>
<feColorMatrix type="matrix" values="0 0 0 0 0 0 0 0 0 0 0 0 0 0 0 0 0 0 0.25 0"/>
<feBlend mode="normal" in2="BackgroundImageFix" result="effect1_dropShadow_548_1335"/>
<feBlend mode="normal" in="SourceGraphic" in2="effect1_dropShadow_548_1335" result="shape"/>
</filter>
</defs>
</svg>
