<svg width="1070" height="76" viewBox="0 0 1070 76" fill="none" xmlns="http://www.w3.org/2000/svg">
<g filter="url(#filter0_d_548_155)">
<path d="M0.890625 0.5C7.01042 13 11.9583 22.9609 15.7344 30.3828C15.8971 31.0339 16.0924 31.3594 16.3203 31.3594C18.9896 25.6953 24.0026 15.5391 31.3594 0.890625H31.5547C31.8151 0.923177 31.9453 1.05339 31.9453 1.28125V62.6094C31.9453 62.8698 31.8151 63 31.5547 63H24.3281C24.0677 63 23.9375 62.8698 23.9375 62.6094V24.9141H23.5469C23.2865 25.1745 21.4635 28.9505 18.0781 36.2422C17.4271 37.4792 16.776 38.4557 16.125 39.1719H15.9297C14.9206 37.6094 12.6419 32.8568 9.09375 24.9141H8.50781V62.6094C8.50781 62.8698 8.3776 63 8.11719 63H0.890625C0.630208 63 0.5 62.8698 0.5 62.6094V0.890625C0.532552 0.630208 0.66276 0.5 0.890625 0.5ZM58.4102 0.5H65.4414C65.7018 0.532552 65.832 0.66276 65.832 0.890625V31.75H73.6445C81.1966 31.75 86.2747 35.8516 88.8789 44.0547V45.2266H89.2695V0.890625C89.3021 0.630208 89.4323 0.5 89.6602 0.5H96.6914C96.9518 0.532552 97.082 0.66276 97.082 0.890625V62.6094C97.082 62.8698 96.9518 63 96.6914 63H89.6602C89.3997 63 89.2695 62.8698 89.2695 62.6094V49.5234H88.8789V49.9141C88.8789 55.4805 84.7773 59.7773 76.5742 62.8047C75.0443 62.9349 73.9375 63 73.2539 63H58.4102C58.1497 63 58.0195 62.8698 58.0195 62.6094V0.890625C58.0521 0.630208 58.1823 0.5 58.4102 0.5ZM65.832 39.5625V55.1875H73.4492C77.3555 55.1875 80.0247 53.1042 81.457 48.9375V47.375C81.457 43.5664 79.569 41.0924 75.793 39.9531C74.3281 39.6927 73.2865 39.5625 72.668 39.5625H65.832ZM181.848 0.5H197.473C204.341 0.5 209.159 5.05729 211.926 14.1719C212.447 15.9622 212.707 17.5898 212.707 19.0547V20.4219C212.707 26.4766 210.689 31.4896 206.652 35.4609C208.443 36.112 210.135 38.0651 211.73 41.3203C212.382 43.1107 212.707 44.8685 212.707 46.5938V48.1562C212.707 55.1224 208.54 60.0052 200.207 62.8047C199.198 62.9349 198.091 63 196.887 63H181.848C181.587 63 181.457 62.8698 181.457 62.6094V0.890625C181.49 0.630208 181.62 0.5 181.848 0.5ZM189.27 8.3125V31.75H195.52C200.826 31.75 203.951 28.2344 204.895 21.2031V20.0312C204.895 16.418 203.592 13.0326 200.988 9.875C199.751 8.83333 198.189 8.3125 196.301 8.3125H189.27ZM189.27 39.5625V55.1875H194.738C199.816 55.1875 203.007 53.5599 204.309 50.3047L204.895 46.7891C204.895 43.6315 202.681 41.2878 198.254 39.7578C196.757 39.6276 195.324 39.5625 193.957 39.5625H189.27ZM257.531 0.5C264.204 0.5 269.087 4.08073 272.18 11.2422C272.57 12.707 272.831 14.2695 272.961 15.9297L272.57 16.125H265.539C265.246 16.125 264.855 14.9531 264.367 12.6094C262.544 9.74479 260.07 8.3125 256.945 8.3125C253.495 8.3125 251.021 10.3958 249.523 14.5625V48.3516C249.523 50.9557 251.281 53.1042 254.797 54.7969C255.708 55.0573 256.49 55.1875 257.141 55.1875C260.884 55.1875 263.488 53.1693 264.953 49.1328C264.953 47.9609 265.148 47.375 265.539 47.375H272.57L272.961 47.5703C272.961 54.0807 269.445 58.9635 262.414 62.2188C260.721 62.7396 258.898 63 256.945 63C250.435 63 245.617 59.5495 242.492 52.6484C241.971 51.1185 241.711 49.7513 241.711 48.5469V14.9531C241.711 9.41927 244.966 4.92708 251.477 1.47656C253.365 0.825521 255.383 0.5 257.531 0.5ZM302.355 0.5H332.824C333.085 0.532552 333.215 0.66276 333.215 0.890625V7.92188C333.215 8.18229 333.085 8.3125 332.824 8.3125H309.777V31.75H332.824C333.085 31.7826 333.215 31.9128 333.215 32.1406V39.1719C333.215 39.4323 333.085 39.5625 332.824 39.5625H309.777V55.1875H332.824C333.085 55.2201 333.215 55.3503 333.215 55.5781V62.6094C333.215 62.8698 333.085 63 332.824 63H302.355C302.095 63 301.965 62.8698 301.965 62.6094V0.890625C301.997 0.630208 302.128 0.5 302.355 0.5ZM362.609 0.5H393.078C393.339 0.532552 393.469 0.66276 393.469 0.890625V7.92188C393.469 8.18229 393.339 8.3125 393.078 8.3125H370.031V62.6094C370.031 62.8698 369.901 63 369.641 63H362.609C362.349 63 362.219 62.8698 362.219 62.6094V0.890625C362.251 0.630208 362.382 0.5 362.609 0.5ZM437.707 0.5H452.355C452.616 0.532552 452.746 0.66276 452.746 0.890625V55.1875H458.215C458.475 55.2201 458.605 55.3503 458.605 55.5781V62.6094C458.605 62.8698 458.475 63 458.215 63H416.418C416.158 63 416.027 62.8698 416.027 62.6094V55.5781C416.06 55.3177 416.19 55.1875 416.418 55.1875H421.496V15.5391C421.496 8.34505 425.728 3.39714 434.191 0.695312C435.428 0.565104 436.6 0.5 437.707 0.5ZM429.309 55.1875H444.934V8.3125H437.316C433.443 8.3125 430.773 10.3307 429.309 14.3672V55.1875ZM498.742 0.5C505.253 0.5 510.07 3.95052 513.195 10.8516C513.716 12.4466 513.977 13.8138 513.977 14.9531V62.6094C513.977 62.8698 513.846 63 513.586 63H506.555C506.294 63 506.164 62.8698 506.164 62.6094V39.5625H490.539V62.6094C490.539 62.8698 490.409 63 490.148 63H483.117C482.857 63 482.727 62.8698 482.727 62.6094V17.6875C482.727 9.54948 486.242 4.08073 493.273 1.28125C494.966 0.760417 496.789 0.5 498.742 0.5ZM490.539 17.4922V31.75H506.164V15.1484C506.164 12.5443 504.406 10.3958 500.891 8.70312C499.979 8.44271 499.198 8.3125 498.547 8.3125C494.836 8.3125 492.232 10.3307 490.734 14.3672C490.604 15.7018 490.539 16.7435 490.539 17.4922ZM603.625 0.5H610.656C610.917 0.532552 611.047 0.66276 611.047 0.890625V31.75H626.672V0.890625C626.704 0.630208 626.835 0.5 627.062 0.5H634.094C634.354 0.532552 634.484 0.66276 634.484 0.890625V62.6094C634.484 62.8698 634.354 63 634.094 63H627.062C626.802 63 626.672 62.8698 626.672 62.6094V39.5625H611.047V62.6094C611.047 62.8698 610.917 63 610.656 63H603.625C603.365 63 603.234 62.8698 603.234 62.6094V0.890625C603.267 0.630208 603.397 0.5 603.625 0.5ZM679.504 0.5C686.014 0.5 690.832 3.95052 693.957 10.8516C694.478 12.4466 694.738 13.8138 694.738 14.9531V62.6094C694.738 62.8698 694.608 63 694.348 63H687.316C687.056 63 686.926 62.8698 686.926 62.6094V39.5625H671.301V62.6094C671.301 62.8698 671.171 63 670.91 63H663.879C663.618 63 663.488 62.8698 663.488 62.6094V17.6875C663.488 9.54948 667.004 4.08073 674.035 1.28125C675.728 0.760417 677.551 0.5 679.504 0.5ZM671.301 17.4922V31.75H686.926V15.1484C686.926 12.5443 685.168 10.3958 681.652 8.70312C680.741 8.44271 679.96 8.3125 679.309 8.3125C675.598 8.3125 672.993 10.3307 671.496 14.3672C671.366 15.7018 671.301 16.7435 671.301 17.4922ZM799.816 0.5C806.49 0.5 811.372 4.08073 814.465 11.2422C814.855 12.707 815.116 14.2695 815.246 15.9297L814.855 16.125H807.824C807.531 16.125 807.141 14.9531 806.652 12.6094C804.829 9.74479 802.355 8.3125 799.23 8.3125C795.78 8.3125 793.306 10.3958 791.809 14.5625V48.3516C791.809 50.9557 793.566 53.1042 797.082 54.7969C797.993 55.0573 798.775 55.1875 799.426 55.1875C803.169 55.1875 805.773 53.1693 807.238 49.1328C807.238 47.9609 807.434 47.375 807.824 47.375H814.855L815.246 47.5703C815.246 54.0807 811.73 58.9635 804.699 62.2188C803.007 62.7396 801.184 63 799.23 63C792.72 63 787.902 59.5495 784.777 52.6484C784.257 51.1185 783.996 49.7513 783.996 48.5469V14.9531C783.996 9.41927 787.251 4.92708 793.762 1.47656C795.65 0.825521 797.668 0.5 799.816 0.5ZM844.641 0.5H860.266C867.134 0.5 871.952 5.05729 874.719 14.1719C875.24 15.9622 875.5 17.5898 875.5 19.0547V20.4219C875.5 26.4766 873.482 31.4896 869.445 35.4609C871.236 36.112 872.928 38.0651 874.523 41.3203C875.174 43.1107 875.5 44.8685 875.5 46.5938V48.1562C875.5 55.1224 871.333 60.0052 863 62.8047C861.991 62.9349 860.884 63 859.68 63H844.641C844.38 63 844.25 62.8698 844.25 62.6094V0.890625C844.283 0.630208 844.413 0.5 844.641 0.5ZM852.062 8.3125V31.75H858.312C863.618 31.75 866.743 28.2344 867.688 21.2031V20.0312C867.688 16.418 866.385 13.0326 863.781 9.875C862.544 8.83333 860.982 8.3125 859.094 8.3125H852.062ZM852.062 39.5625V55.1875H857.531C862.609 55.1875 865.799 53.5599 867.102 50.3047L867.688 46.7891C867.688 43.6315 865.474 41.2878 861.047 39.7578C859.549 39.6276 858.117 39.5625 856.75 39.5625H852.062ZM935.363 0.109375C935.591 0.109375 935.721 0.239583 935.754 0.5V62.2188C935.754 62.4792 935.624 62.6094 935.363 62.6094H928.332C928.072 62.6094 927.941 62.4792 927.941 62.2188V39.5625H927.746L920.91 49.9141C916.32 57.1081 913.326 61.4701 911.926 63H904.895C904.634 63 904.504 62.8698 904.504 62.6094V62.4141C911.079 52.5833 916.158 44.901 919.738 39.3672C919.738 39.2044 918.827 39.0742 917.004 38.9766C908.671 36.3398 904.504 31.1966 904.504 23.5469V16.5156C904.504 11.9258 906.001 8.08464 908.996 4.99219C911.112 1.73698 915.799 0.109375 923.059 0.109375H935.363ZM927.941 7.92188H918.762C914.465 9.25651 912.316 11.9909 912.316 16.125V24.9141C913.618 29.2109 916.092 31.3594 919.738 31.3594H927.941V7.92188ZM980.773 0.5H981.164C988.13 0.5 993.013 5.77344 995.812 16.3203C995.943 17.1341 996.008 18.0456 996.008 19.0547V21.2031C996.008 26.0208 994.185 30.6432 990.539 35.0703C994.185 38.8464 996.008 42.7526 996.008 46.7891V48.1562C996.008 55.1875 991.776 60.0703 983.312 62.8047C981.945 62.9349 980.839 63 979.992 63C972.473 63 967.46 58.5729 964.953 49.7188V47.7656C964.986 47.5052 965.116 47.375 965.344 47.375H971.984C972.342 47.5052 972.993 49.0677 973.938 52.0625C975.891 54.1458 978.169 55.1875 980.773 55.1875C984.549 55.1875 986.958 53.1042 988 48.9375L988.195 46.9844C988.195 44.1523 986.633 41.8086 983.508 39.9531C981.424 39.6602 979.423 39.3997 977.502 39.1719L977.6 32.4824C979.455 32.4499 981.945 31.4896 985.07 29.6016C987.154 26.9648 988.195 24.0352 988.195 20.8125V18.8594C988.195 13.9766 986.307 10.6562 982.531 8.89844C981.359 8.50781 980.578 8.3125 980.188 8.3125C976.346 8.3125 973.677 12.1536 972.18 19.8359H965.148C964.888 19.8359 964.758 19.7057 964.758 19.4453C964.758 10.7539 968.794 4.63411 976.867 1.08594C977.811 0.695312 979.113 0.5 980.773 0.5ZM1032.43 0.5C1032.66 0.5 1032.79 0.630208 1032.82 0.890625V41.125C1033.12 40.9622 1040.8 27.5508 1055.87 0.890625H1056.26V62.6094C1056.26 62.8698 1056.13 63 1055.87 63H1048.84C1048.58 63 1048.45 62.8698 1048.45 62.6094V21.9844H1048.25L1025.4 62.4141H1025.01V0.890625C1025.01 0.66276 1025.14 0.532552 1025.4 0.5H1032.43Z" fill="white"/>
</g>
<defs>
<filter id="filter0_d_548_155" x="0.5" y="0.109375" width="1068.76" height="75.8906" filterUnits="userSpaceOnUse" color-interpolation-filters="sRGB">
<feFlood flood-opacity="0" result="BackgroundImageFix"/>
<feColorMatrix in="SourceAlpha" type="matrix" values="0 0 0 0 0 0 0 0 0 0 0 0 0 0 0 0 0 0 127 0" result="hardAlpha"/>
<feOffset dx="9" dy="9"/>
<feGaussianBlur stdDeviation="2"/>
<feComposite in2="hardAlpha" operator="out"/>
<feColorMatrix type="matrix" values="0 0 0 0 0 0 0 0 0 0 0 0 0 0 0 0 0 0 0.25 0"/>
<feBlend mode="normal" in2="BackgroundImageFix" result="effect1_dropShadow_548_155"/>
<feBlend mode="normal" in="SourceGraphic" in2="effect1_dropShadow_548_155" result="shape"/>
</filter>
</defs>
</svg>
