<svg width="1560" height="99" viewBox="0 0 1560 99" fill="none" xmlns="http://www.w3.org/2000/svg">
<path d="M141.32 -6.67572e-06H95.26C93.72 -6.67572e-06 92.32 1.39999 92.32 2.94V46.2H5.94V2.94C5.94 1.39999 4.54 -6.67572e-06 3 -6.67572e-06C1.46 -6.67572e-06 0.2 1.39999 0.2 2.94V95.2C0.2 96.74 1.46 98 3 98C4.54 98 5.94 96.74 5.94 95.2V51.94H92.32V95.2C92.32 96.74 93.72 98 95.26 98H141.32C143 98 144.26 96.74 144.26 95.2V2.94C144.26 1.39999 143 -6.67572e-06 141.32 -6.67572e-06ZM282.75 93.94L236.55 1.68C236.13 0.699993 235.15 -6.67572e-06 234.03 -6.67572e-06H187.97C186.85 -6.67572e-06 186.01 0.559994 185.45 1.39999C185.45 1.54 185.45 1.54 185.45 1.54C185.45 1.68 185.31 1.68 185.31 1.68L162.35 47.74C162.21 47.74 162.21 47.74 162.21 47.88L139.25 93.94C138.55 95.34 139.11 97.02 140.51 97.72C141.91 98.42 143.59 97.86 144.43 96.46L166.69 51.94H209.25L231.51 96.46C231.65 97.02 232.07 97.3 232.49 97.58C232.91 97.86 233.47 98 233.89 98H234.03H280.09C281.21 98 282.05 97.58 282.61 96.74C283.17 95.9 283.17 94.78 282.75 93.94ZM169.49 46.2L187.97 9.38L206.31 46.2H169.49ZM426.119 -6.67572e-06H380.059C378.379 -6.67572e-06 377.119 1.39999 377.119 2.94C377.119 4.47999 378.379 5.87999 380.059 5.87999C381.459 5.87999 382.859 5.87999 384.259 6.02C384.819 6.16 385.239 6.16 385.659 6.3C386.639 6.43999 387.619 6.43999 388.599 6.72C389.159 6.86 389.579 6.99999 390.139 7.13999C390.979 7.28 391.819 7.42 392.659 7.69999C393.219 7.83999 393.779 8.12 394.339 8.26C395.039 8.53999 395.739 8.82 396.439 9.09999C396.999 9.38 397.559 9.65999 398.119 9.94C398.819 10.22 399.519 10.5 400.219 10.92C400.779 11.2 401.339 11.48 401.759 11.76C402.459 12.18 403.159 12.6 403.719 13.02C404.279 13.3 404.699 13.72 405.259 14C405.819 14.42 406.519 14.98 407.079 15.4C407.499 15.82 407.919 16.24 408.479 16.66C409.039 17.08 409.599 17.5 410.019 18.06C410.579 18.48 410.999 19.04 411.419 19.46C411.839 20.02 412.399 20.44 412.819 21C413.239 21.56 413.659 21.98 414.079 22.54C414.499 23.1 414.919 23.66 415.339 24.22C415.759 24.78 416.039 25.34 416.459 25.9C416.739 26.46 417.159 27.02 417.579 27.72C417.859 28.28 418.139 28.84 418.419 29.4C418.839 30.1 419.119 30.66 419.399 31.36C419.679 31.92 419.959 32.62 420.099 33.18C420.379 33.88 420.659 34.58 420.939 35.28C421.079 35.84 421.359 36.4 421.499 37.1C421.779 37.8 421.919 38.5 422.059 39.2C422.199 39.9 422.339 40.46 422.479 41.16C422.619 41.86 422.759 42.7 422.759 43.4C422.899 44.1 423.039 44.8 423.039 45.36C423.039 45.64 423.039 45.92 423.039 46.2H380.059C378.379 46.2 377.119 47.46 377.119 49.14C377.119 50.68 378.379 51.94 380.059 51.94H423.039C423.039 52.22 423.039 52.5 423.039 52.78C423.039 53.48 422.899 54.04 422.759 54.74C422.759 55.44 422.619 56.28 422.479 56.98C422.339 57.68 422.199 58.24 422.059 58.94C421.919 59.64 421.779 60.34 421.499 61.04C421.359 61.74 421.079 62.3 420.939 63C420.659 63.56 420.379 64.26 420.099 64.96C419.959 65.66 419.679 66.22 419.399 66.78C419.119 67.48 418.839 68.04 418.419 68.74C418.139 69.3 417.859 69.86 417.579 70.42C417.159 71.12 416.739 71.68 416.459 72.24C416.039 72.8 415.759 73.36 415.339 73.92C414.919 74.48 414.499 75.04 414.079 75.6C413.659 76.16 413.239 76.58 412.819 77.14C412.399 77.7 411.839 78.26 411.419 78.68C410.999 79.24 410.579 79.66 410.019 80.08C409.599 80.64 409.039 81.06 408.479 81.48C407.919 81.9 407.499 82.32 407.079 82.74C406.519 83.3 405.819 83.72 405.259 84.14C404.699 84.42 404.279 84.84 403.719 85.12C403.159 85.54 402.459 85.96 401.759 86.38C401.339 86.66 400.779 86.94 400.219 87.22C399.519 87.64 398.819 87.92 398.119 88.2C397.559 88.48 396.999 88.76 396.439 89.04C395.739 89.32 395.039 89.6 394.339 89.88C393.779 90.02 393.219 90.3 392.659 90.44C391.819 90.72 390.979 90.86 390.139 91C389.579 91.14 389.019 91.28 388.459 91.42C387.619 91.7 386.639 91.7 385.659 91.84C385.239 91.98 384.819 92.12 384.259 92.12C382.859 92.26 381.459 92.26 380.059 92.26C356.119 92.26 336.799 72.94 336.799 49.14C336.799 47.46 335.399 46.2 333.859 46.2C332.319 46.2 331.059 47.46 331.059 49.14C331.059 76.16 353.039 98.14 380.059 98.14H426.119C453.139 98.14 475.119 76.16 475.119 49.14C475.119 22.12 453.139 -6.67572e-06 426.119 -6.67572e-06ZM599.738 -6.67572e-06H461.418C459.878 -6.67572e-06 458.618 1.39999 458.618 2.94C458.618 4.47999 459.878 5.87999 461.418 5.87999H504.678V95.2C504.678 96.74 505.938 98 507.618 98H553.678C555.218 98 556.618 96.74 556.618 95.2V5.87999H599.738C601.418 5.87999 602.678 4.47999 602.678 2.94C602.678 1.39999 601.418 -6.67572e-06 599.738 -6.67572e-06ZM681.237 -6.67572e-06H635.177C608.157 -6.67572e-06 586.177 22.12 586.177 49C586.177 76.02 608.157 98 635.177 98H681.237C708.257 98 730.237 76.02 730.237 49C730.237 22.12 708.257 -6.67572e-06 681.237 -6.67572e-06ZM635.177 92.26C611.237 92.26 591.917 72.94 591.917 49C591.917 25.2 611.237 5.87999 635.177 5.87999C658.977 5.87999 678.297 25.2 678.297 49C678.297 72.94 658.977 92.26 635.177 92.26ZM854.855 -6.67572e-06H716.535C714.995 -6.67572e-06 713.735 1.39999 713.735 2.94C713.735 4.47999 714.995 5.87999 716.535 5.87999H759.795V95.2C759.795 96.74 761.055 98 762.735 98H808.795C810.335 98 811.735 96.74 811.735 95.2V5.87999H854.855C856.535 5.87999 857.795 4.47999 857.795 2.94C857.795 1.39999 856.535 -6.67572e-06 854.855 -6.67572e-06ZM1046.95 46.2C1045.41 46.2 1044.15 47.46 1044.15 49C1044.15 72.94 1024.69 92.26 1000.89 92.26C977.085 92.26 957.625 72.94 957.625 49C957.625 25.2 977.085 5.87999 1000.89 5.87999C1002.43 5.87999 1003.83 4.47999 1003.83 2.94C1003.83 1.39999 1002.43 -6.67572e-06 1000.89 -6.67572e-06H954.825C927.805 -6.67572e-06 905.825 22.12 905.825 49C905.825 76.02 927.805 98 954.825 98H1000.89C1027.91 98 1049.89 76.02 1049.89 49C1049.89 47.46 1048.62 46.2 1046.95 46.2ZM1185.71 92.26H1098.21L1118.37 51.94H1162.75C1164.29 51.94 1165.55 50.68 1165.55 49C1165.55 47.46 1164.29 46.2 1162.75 46.2H1121.31L1141.47 5.87999H1162.75C1164.29 5.87999 1165.55 4.47999 1165.55 2.94C1165.55 1.39999 1164.29 -6.67572e-06 1162.75 -6.67572e-06H1093.45C1092.47 -6.67572e-06 1091.49 0.699993 1090.93 1.68L1044.87 93.94C1044.31 94.78 1044.45 95.9 1045.01 96.74C1045.43 97.58 1046.41 98 1047.39 98H1185.71C1187.39 98 1188.65 96.74 1188.65 95.2C1188.65 93.66 1187.39 92.26 1185.71 92.26ZM1278.83 46.06H1237.53L1258.39 4.2C1258.95 3.35999 1258.81 2.24 1258.25 1.39999C1257.83 0.559994 1256.85 -6.67572e-06 1255.87 -6.67572e-06H1209.67H1186.71C1185.03 -6.67572e-06 1183.77 1.39999 1183.77 2.94C1183.77 4.47999 1185.03 5.87999 1186.71 5.87999H1205.05L1184.05 47.74C1183.63 48.58 1183.77 49.7 1184.19 50.54C1184.75 51.38 1185.73 51.94 1186.71 51.94H1232.77C1243.97 51.94 1252.93 60.9 1252.93 72.1C1252.93 83.3 1243.97 92.26 1232.77 92.26H1163.61C1162.07 92.26 1160.81 93.66 1160.81 95.2C1160.81 96.74 1162.07 98 1163.61 98H1278.83C1293.25 98 1304.87 86.38 1304.87 72.1C1304.87 57.82 1293.25 46.06 1278.83 46.06ZM1372.21 -6.67572e-06H1326.15C1299.13 -6.67572e-06 1277.15 22.12 1277.15 49C1277.15 76.02 1299.13 98 1326.15 98H1372.21C1399.23 98 1421.21 76.02 1421.21 49C1421.21 22.12 1399.23 -6.67572e-06 1372.21 -6.67572e-06ZM1326.15 92.26C1302.21 92.26 1282.89 72.94 1282.89 49C1282.89 25.2 1302.21 5.87999 1326.15 5.87999C1349.95 5.87999 1369.27 25.2 1369.27 49C1369.27 72.94 1349.95 92.26 1326.15 92.26ZM1557.04 -6.67572e-06H1510.98C1509.44 -6.67572e-06 1508.04 1.39999 1508.04 2.94V46.2H1421.66V2.94C1421.66 1.39999 1420.26 -6.67572e-06 1418.72 -6.67572e-06C1417.18 -6.67572e-06 1415.92 1.39999 1415.92 2.94V95.2C1415.92 96.74 1417.18 98 1418.72 98C1420.26 98 1421.66 96.74 1421.66 95.2V51.94H1508.04V95.2C1508.04 96.74 1509.44 98 1510.98 98H1557.04C1558.72 98 1559.98 96.74 1559.98 95.2V2.94C1559.98 1.39999 1558.72 -6.67572e-06 1557.04 -6.67572e-06Z" fill="#1F252D"/>
</svg>
