<svg width="755" height="63" viewBox="0 0 755 63" fill="none" xmlns="http://www.w3.org/2000/svg">
<path d="M1.08594 0.5H8.11719C8.3776 0.532552 8.50781 0.66276 8.50781 0.890625V31.75H24.1328V0.890625C24.1654 0.630208 24.2956 0.5 24.5234 0.5H31.5547C31.8151 0.532552 31.9453 0.66276 31.9453 0.890625V62.6094C31.9453 62.8698 31.8151 63 31.5547 63H24.5234C24.263 63 24.1328 62.8698 24.1328 62.6094V39.5625H8.50781V62.6094C8.50781 62.8698 8.3776 63 8.11719 63H1.08594C0.825521 63 0.695312 62.8698 0.695312 62.6094V0.890625C0.727865 0.630208 0.858073 0.5 1.08594 0.5ZM76.9648 0.5C83.4753 0.5 88.293 3.95052 91.418 10.8516C91.9388 12.4466 92.1992 13.8138 92.1992 14.9531V62.6094C92.1992 62.8698 92.069 63 91.8086 63H84.7773C84.5169 63 84.3867 62.8698 84.3867 62.6094V39.5625H68.7617V62.6094C68.7617 62.8698 68.6315 63 68.3711 63H61.3398C61.0794 63 60.9492 62.8698 60.9492 62.6094V17.6875C60.9492 9.54948 64.4648 4.08073 71.4961 1.28125C73.1888 0.760417 75.0117 0.5 76.9648 0.5ZM68.7617 17.4922V31.75H84.3867V15.1484C84.3867 12.5443 82.6289 10.3958 79.1133 8.70312C78.2018 8.44271 77.4206 8.3125 76.7695 8.3125C73.0586 8.3125 70.4544 10.3307 68.957 14.3672C68.8268 15.7018 68.7617 16.7435 68.7617 17.4922ZM197.473 0.5C204.927 0.5 209.94 4.86198 212.512 13.5859C212.642 14.3346 212.707 15.3763 212.707 16.7109V47.375C212.707 55.2201 208.345 60.3633 199.621 62.8047C198.84 62.9349 197.863 63 196.691 63C189.302 63 184.289 58.7682 181.652 50.3047L181.457 47.5703L181.848 47.375H188.488C189.009 47.375 189.595 48.8073 190.246 51.6719C192.264 54.0156 194.738 55.1875 197.668 55.1875C200.826 55.1875 203.039 53.4948 204.309 50.1094C204.699 48.4492 204.895 47.2122 204.895 46.3984V39.5625H194.738C194.478 39.5625 194.348 39.4323 194.348 39.1719V32.1406C194.38 31.8802 194.51 31.75 194.738 31.75H204.895V16.3203C204.895 12.3815 202.811 9.71224 198.645 8.3125H197.668C194.055 8.3125 191.451 9.8099 189.855 12.8047C189.465 13.8138 189.204 14.9206 189.074 16.125H181.848C181.587 16.125 181.457 15.9948 181.457 15.7344V15.1484C181.457 8.86589 185.363 4.11328 193.176 0.890625C195.096 0.630208 196.529 0.5 197.473 0.5ZM242.102 0.5H272.57C272.831 0.532552 272.961 0.66276 272.961 0.890625V7.92188C272.961 8.18229 272.831 8.3125 272.57 8.3125H261.438V62.6094C261.438 62.8698 261.307 63 261.047 63H254.016C253.755 63 253.625 62.8698 253.625 62.6094V8.3125H242.102C241.841 8.3125 241.711 8.18229 241.711 7.92188V0.890625C241.743 0.630208 241.874 0.5 242.102 0.5ZM317.785 0.5C324.23 0.5 329.048 7.33594 332.238 21.0078C332.629 22.7331 332.954 26.3138 333.215 31.75C333.215 44.6406 329.895 54.4062 323.254 61.0469C321.333 62.349 319.315 63 317.199 63C310.786 63 305.969 56.1641 302.746 42.4922C302.225 39.3672 301.965 36.4375 301.965 33.7031V29.7969C301.965 19.6732 304.634 11.1445 309.973 4.21094C312.251 1.73698 314.855 0.5 317.785 0.5ZM309.777 30.1875V33.8984C310.656 48.0911 313.326 55.1875 317.785 55.1875C320.975 55.1875 323.384 49.6536 325.012 38.5859L325.402 31.75C324.589 16.125 321.854 8.3125 317.199 8.3125C314.107 8.3125 311.763 13.5208 310.168 23.9375C309.908 25.2721 309.777 27.3555 309.777 30.1875ZM362.609 0.5H393.078C393.339 0.532552 393.469 0.66276 393.469 0.890625V7.92188C393.469 8.18229 393.339 8.3125 393.078 8.3125H381.945V62.6094C381.945 62.8698 381.815 63 381.555 63H374.523C374.263 63 374.133 62.8698 374.133 62.6094V8.3125H362.609C362.349 8.3125 362.219 8.18229 362.219 7.92188V0.890625C362.251 0.630208 362.382 0.5 362.609 0.5ZM498.547 0.5C505.22 0.5 510.103 4.08073 513.195 11.2422C513.586 12.707 513.846 14.2695 513.977 15.9297L513.586 16.125H506.555C506.262 16.125 505.871 14.9531 505.383 12.6094C503.56 9.74479 501.086 8.3125 497.961 8.3125C494.51 8.3125 492.036 10.3958 490.539 14.5625V48.3516C490.539 50.9557 492.297 53.1042 495.812 54.7969C496.724 55.0573 497.505 55.1875 498.156 55.1875C501.9 55.1875 504.504 53.1693 505.969 49.1328C505.969 47.9609 506.164 47.375 506.555 47.375H513.586L513.977 47.5703C513.977 54.0807 510.461 58.9635 503.43 62.2188C501.737 62.7396 499.914 63 497.961 63C491.451 63 486.633 59.5495 483.508 52.6484C482.987 51.1185 482.727 49.7513 482.727 48.5469V14.9531C482.727 9.41927 485.982 4.92708 492.492 1.47656C494.38 0.825521 496.398 0.5 498.547 0.5ZM543.371 0.5H573.84C574.1 0.532552 574.23 0.66276 574.23 0.890625V7.92188C574.23 8.18229 574.1 8.3125 573.84 8.3125H550.793V31.75H573.84C574.1 31.7826 574.23 31.9128 574.23 32.1406V39.1719C574.23 39.4323 574.1 39.5625 573.84 39.5625H550.793V55.1875H573.84C574.1 55.2201 574.23 55.3503 574.23 55.5781V62.6094C574.23 62.8698 574.1 63 573.84 63H543.371C543.111 63 542.98 62.8698 542.98 62.6094V0.890625C543.013 0.630208 543.143 0.5 543.371 0.5ZM619.25 0.5H619.641C626.607 0.5 631.49 5.77344 634.289 16.3203C634.419 17.1341 634.484 18.0456 634.484 19.0547V21.2031C634.484 26.0208 632.661 30.6432 629.016 35.0703C632.661 38.8464 634.484 42.7526 634.484 46.7891V48.1562C634.484 55.1875 630.253 60.0703 621.789 62.8047C620.422 62.9349 619.315 63 618.469 63C610.949 63 605.936 58.5729 603.43 49.7188V47.7656C603.462 47.5052 603.592 47.375 603.82 47.375H610.461C610.819 47.5052 611.47 49.0677 612.414 52.0625C614.367 54.1458 616.646 55.1875 619.25 55.1875C623.026 55.1875 625.435 53.1042 626.477 48.9375L626.672 46.9844C626.672 44.1523 625.109 41.8086 621.984 39.9531C619.901 39.6602 617.899 39.3997 615.979 39.1719L616.076 32.4824C617.932 32.4499 620.422 31.4896 623.547 29.6016C625.63 26.9648 626.672 24.0352 626.672 20.8125V18.8594C626.672 13.9766 624.784 10.6562 621.008 8.89844C619.836 8.50781 619.055 8.3125 618.664 8.3125C614.823 8.3125 612.154 12.1536 610.656 19.8359H603.625C603.365 19.8359 603.234 19.7057 603.234 19.4453C603.234 10.7539 607.271 4.63411 615.344 1.08594C616.288 0.695312 617.59 0.5 619.25 0.5ZM679.309 0.5C685.754 0.5 690.572 7.33594 693.762 21.0078C694.152 22.7331 694.478 26.3138 694.738 31.75C694.738 44.6406 691.418 54.4062 684.777 61.0469C682.857 62.349 680.839 63 678.723 63C672.31 63 667.492 56.1641 664.27 42.4922C663.749 39.3672 663.488 36.4375 663.488 33.7031V29.7969C663.488 19.6732 666.158 11.1445 671.496 4.21094C673.775 1.73698 676.379 0.5 679.309 0.5ZM671.301 30.1875V33.8984C672.18 48.0911 674.849 55.1875 679.309 55.1875C682.499 55.1875 684.908 49.6536 686.535 38.5859L686.926 31.75C686.112 16.125 683.378 8.3125 678.723 8.3125C675.63 8.3125 673.286 13.5208 671.691 23.9375C671.431 25.2721 671.301 27.3555 671.301 30.1875ZM724.133 0.5H731.164C731.424 0.532552 731.555 0.66276 731.555 0.890625V31.75H747.18V0.890625C747.212 0.630208 747.342 0.5 747.57 0.5H754.602C754.862 0.532552 754.992 0.66276 754.992 0.890625V62.6094C754.992 62.8698 754.862 63 754.602 63H747.57C747.31 63 747.18 62.8698 747.18 62.6094V39.5625H731.555V62.6094C731.555 62.8698 731.424 63 731.164 63H724.133C723.872 63 723.742 62.8698 723.742 62.6094V0.890625C723.775 0.630208 723.905 0.5 724.133 0.5Z" fill="white"/>
</svg>
