<svg width="702" height="113" viewBox="0 0 702 113" fill="none" xmlns="http://www.w3.org/2000/svg">
<path d="M109.128 -7.62939e-06H56.4875C25.6075 -7.62939e-06 0.4875 25.28 0.4875 56C0.4875 86.88 25.6075 112 56.4875 112H109.128C140.008 112 165.128 86.88 165.128 56C165.128 25.28 140.008 -7.62939e-06 109.128 -7.62939e-06ZM56.4875 105.44C29.1275 105.44 7.0475 83.36 7.0475 56C7.0475 28.8 29.1275 6.71999 56.4875 6.71999C83.6875 6.71999 105.768 28.8 105.768 56C105.768 83.36 83.6875 105.44 56.4875 105.44ZM381.299 -7.62939e-06H328.659C326.899 -7.62939e-06 325.299 1.59999 325.299 3.36V52.8H226.579V3.36C226.579 1.59999 224.979 -7.62939e-06 223.219 -7.62939e-06C221.459 -7.62939e-06 220.019 1.59999 220.019 3.36V108.8C220.019 110.56 221.459 112 223.219 112C224.979 112 226.579 110.56 226.579 108.8V59.36H325.299V108.8C325.299 110.56 326.899 112 328.659 112H381.299C383.219 112 384.659 110.56 384.659 108.8V3.36C384.659 1.59999 383.219 -7.62939e-06 381.299 -7.62939e-06ZM542.933 107.36L490.133 1.92C489.653 0.799992 488.533 -7.62939e-06 487.253 -7.62939e-06H434.613C433.333 -7.62939e-06 432.373 0.639994 431.733 1.59999C431.733 1.76 431.733 1.76 431.733 1.76C431.733 1.92 431.573 1.92 431.573 1.92L405.332 54.56C405.173 54.56 405.173 54.56 405.173 54.72L378.932 107.36C378.132 108.96 378.772 110.88 380.372 111.68C381.973 112.48 383.893 111.84 384.853 110.24L410.293 59.36H458.933L484.373 110.24C484.533 110.88 485.013 111.2 485.493 111.52C485.973 111.84 486.613 112 487.093 112H487.253H539.893C541.173 112 542.133 111.52 542.773 110.56C543.412 109.6 543.412 108.32 542.933 107.36ZM413.493 52.8L434.613 10.72L455.573 52.8H413.493ZM698.486 52.8C696.726 52.8 695.286 54.24 695.286 56C695.286 83.36 673.046 105.44 645.846 105.44C618.646 105.44 596.406 83.36 596.406 56C596.406 28.8 618.646 6.71999 645.846 6.71999C647.606 6.71999 649.206 5.11999 649.206 3.36C649.206 1.59999 647.606 -7.62939e-06 645.846 -7.62939e-06H593.206C562.326 -7.62939e-06 537.206 25.28 537.206 56C537.206 86.88 562.326 112 593.206 112H645.846C676.726 112 701.846 86.88 701.846 56C701.846 54.24 700.406 52.8 698.486 52.8Z" fill="#1F252D"/>
</svg>
