<svg width="286" height="76" viewBox="0 0 286 76" fill="none" xmlns="http://www.w3.org/2000/svg">
<g filter="url(#filter0_d_83_1243)">
<path d="M16.2461 0.5C22.6914 0.5 27.5091 7.33594 30.6992 21.0078C31.0898 22.7331 31.4154 26.3138 31.6758 31.75C31.6758 44.6406 28.3555 54.4062 21.7148 61.0469C19.7943 62.349 17.776 63 15.6602 63C9.2474 63 4.42969 56.1641 1.20703 42.4922C0.686198 39.3672 0.425781 36.4375 0.425781 33.7031V29.7969C0.425781 19.6732 3.09505 11.1445 8.43359 4.21094C10.7122 1.73698 13.3164 0.5 16.2461 0.5ZM8.23828 30.1875V33.8984C9.11719 48.0911 11.7865 55.1875 16.2461 55.1875C19.4362 55.1875 21.8451 49.6536 23.4727 38.5859L23.8633 31.75C23.0495 16.125 20.3151 8.3125 15.6602 8.3125C12.5677 8.3125 10.224 13.5208 8.62891 23.9375C8.36849 25.2721 8.23828 27.3555 8.23828 30.1875ZM121.324 0.5H128.355C128.616 0.532552 128.746 0.66276 128.746 0.890625V31.75H144.371V0.890625C144.404 0.630208 144.534 0.5 144.762 0.5H151.793C152.053 0.532552 152.184 0.66276 152.184 0.890625V62.6094C152.184 62.8698 152.053 63 151.793 63H144.762C144.501 63 144.371 62.8698 144.371 62.6094V39.5625H128.746V62.6094C128.746 62.8698 128.616 63 128.355 63H121.324C121.064 63 120.934 62.8698 120.934 62.6094V0.890625C120.966 0.630208 121.096 0.5 121.324 0.5ZM197.203 0.5C203.714 0.5 208.531 3.95052 211.656 10.8516C212.177 12.4466 212.438 13.8138 212.438 14.9531V62.6094C212.438 62.8698 212.307 63 212.047 63H205.016C204.755 63 204.625 62.8698 204.625 62.6094V39.5625H189V62.6094C189 62.8698 188.87 63 188.609 63H181.578C181.318 63 181.188 62.8698 181.188 62.6094V17.6875C181.188 9.54948 184.703 4.08073 191.734 1.28125C193.427 0.760417 195.25 0.5 197.203 0.5ZM189 17.4922V31.75H204.625V15.1484C204.625 12.5443 202.867 10.3958 199.352 8.70312C198.44 8.44271 197.659 8.3125 197.008 8.3125C193.297 8.3125 190.693 10.3307 189.195 14.3672C189.065 15.7018 189 16.7435 189 17.4922ZM257.262 0.5C263.935 0.5 268.818 4.08073 271.91 11.2422C272.301 12.707 272.561 14.2695 272.691 15.9297L272.301 16.125H265.27C264.977 16.125 264.586 14.9531 264.098 12.6094C262.275 9.74479 259.801 8.3125 256.676 8.3125C253.225 8.3125 250.751 10.3958 249.254 14.5625V48.3516C249.254 50.9557 251.012 53.1042 254.527 54.7969C255.439 55.0573 256.22 55.1875 256.871 55.1875C260.615 55.1875 263.219 53.1693 264.684 49.1328C264.684 47.9609 264.879 47.375 265.27 47.375H272.301L272.691 47.5703C272.691 54.0807 269.176 58.9635 262.145 62.2188C260.452 62.7396 258.629 63 256.676 63C250.165 63 245.348 59.5495 242.223 52.6484C241.702 51.1185 241.441 49.7513 241.441 48.5469V14.9531C241.441 9.41927 244.697 4.92708 251.207 1.47656C253.095 0.825521 255.113 0.5 257.262 0.5Z" fill="white"/>
</g>
<defs>
<filter id="filter0_d_83_1243" x="0.425781" y="0.5" width="285.266" height="75.5" filterUnits="userSpaceOnUse" color-interpolation-filters="sRGB">
<feFlood flood-opacity="0" result="BackgroundImageFix"/>
<feColorMatrix in="SourceAlpha" type="matrix" values="0 0 0 0 0 0 0 0 0 0 0 0 0 0 0 0 0 0 127 0" result="hardAlpha"/>
<feOffset dx="9" dy="9"/>
<feGaussianBlur stdDeviation="2"/>
<feComposite in2="hardAlpha" operator="out"/>
<feColorMatrix type="matrix" values="0 0 0 0 0 0 0 0 0 0 0 0 0 0 0 0 0 0 0.25 0"/>
<feBlend mode="normal" in2="BackgroundImageFix" result="effect1_dropShadow_83_1243"/>
<feBlend mode="normal" in="SourceGraphic" in2="effect1_dropShadow_83_1243" result="shape"/>
</filter>
</defs>
</svg>
