<svg width="202" height="60" viewBox="0 0 202 60" fill="none" xmlns="http://www.w3.org/2000/svg">
<g filter="url(#filter0_d_168_4700)">
<g clip-path="url(#clip0_168_4700)">
<rect x="4" width="194" height="52" rx="10" fill="#10171F"/>
<path d="M24 27L29 32L39 22" stroke="#D1C12B" stroke-width="2" stroke-linecap="round" stroke-linejoin="round"/>
<rect x="22" y="17" width="18" height="18" stroke="#3B4654" stroke-width="2"/>
<path d="M55.8516 12.75C56.5189 12.75 57.0072 13.1081 57.3164 13.8242C57.3555 13.9707 57.3815 14.127 57.3945 14.293L57.3555 14.3125H56.6523C56.623 14.3125 56.584 14.1953 56.5352 13.9609C56.3529 13.6745 56.1055 13.5312 55.793 13.5312C55.4479 13.5312 55.2005 13.7396 55.0508 14.1562V17.5352C55.0508 17.7956 55.2266 18.0104 55.5781 18.1797C55.6693 18.2057 55.7474 18.2188 55.8125 18.2188C56.1868 18.2188 56.4473 18.0169 56.5938 17.6133C56.5938 17.4961 56.6133 17.4375 56.6523 17.4375H57.3555L57.3945 17.457C57.3945 18.1081 57.043 18.5964 56.3398 18.9219C56.1706 18.974 55.9883 19 55.793 19C55.1419 19 54.6602 18.6549 54.3477 17.9648C54.2956 17.8118 54.2695 17.6751 54.2695 17.5547V14.1953C54.2695 13.6419 54.5951 13.1927 55.2461 12.8477C55.4349 12.7826 55.6367 12.75 55.8516 12.75ZM61.877 12.75C62.5215 12.75 63.0033 13.4336 63.3223 14.8008C63.3613 14.9733 63.3939 15.3314 63.4199 15.875C63.4199 17.1641 63.0879 18.1406 62.4238 18.8047C62.2318 18.9349 62.0299 19 61.8184 19C61.1771 19 60.6953 18.3164 60.373 16.9492C60.321 16.6367 60.2949 16.3438 60.2949 16.0703V15.6797C60.2949 14.6673 60.5618 13.8145 61.0957 13.1211C61.3236 12.8737 61.584 12.75 61.877 12.75ZM61.0762 15.7188V16.0898C61.1641 17.5091 61.431 18.2188 61.877 18.2188C62.196 18.2188 62.4368 17.6654 62.5996 16.5586L62.6387 15.875C62.5573 14.3125 62.2839 13.5312 61.8184 13.5312C61.5091 13.5312 61.2747 14.0521 61.1152 15.0938C61.0892 15.2272 61.0762 15.4355 61.0762 15.7188ZM66.3594 12.75H69.4062C69.4323 12.7533 69.4453 12.7663 69.4453 12.7891V13.4922C69.4453 13.5182 69.4323 13.5312 69.4062 13.5312H67.1016V18.9609C67.1016 18.987 67.0885 19 67.0625 19H66.3594C66.3333 19 66.3203 18.987 66.3203 18.9609V12.7891C66.3236 12.763 66.3366 12.75 66.3594 12.75ZM73.9668 12.75H75.4316C75.4577 12.7533 75.4707 12.7663 75.4707 12.7891V18.9609C75.4707 18.987 75.4577 19 75.4316 19H74.7285C74.7025 19 74.6895 18.987 74.6895 18.9609V13.5312H73.9277C73.5404 13.5312 73.2734 13.7331 73.127 14.1367V18.9609C73.127 18.987 73.1139 19 73.0879 19H72.3848C72.3587 19 72.3457 18.987 72.3457 18.9609V14.2539C72.3457 13.5345 72.7689 13.0397 73.6152 12.7695C73.7389 12.7565 73.8561 12.75 73.9668 12.75ZM79.9727 12.75C80.6237 12.75 81.1055 13.0951 81.418 13.7852C81.4701 13.9447 81.4961 14.0814 81.4961 14.1953V18.9609C81.4961 18.987 81.4831 19 81.457 19H80.7539C80.7279 19 80.7148 18.987 80.7148 18.9609V16.6562H79.1523V18.9609C79.1523 18.987 79.1393 19 79.1133 19H78.4102C78.3841 19 78.3711 18.987 78.3711 18.9609V14.4688C78.3711 13.6549 78.7227 13.1081 79.4258 12.8281C79.5951 12.776 79.7773 12.75 79.9727 12.75ZM79.1523 14.4492V15.875H80.7148V14.2148C80.7148 13.9544 80.5391 13.7396 80.1875 13.5703C80.0964 13.5443 80.0182 13.5312 79.9531 13.5312C79.582 13.5312 79.3216 13.7331 79.1719 14.1367C79.1589 14.2702 79.1523 14.3743 79.1523 14.4492ZM85.9785 12.75C86.6458 12.75 87.1341 13.1081 87.4434 13.8242C87.4824 13.9707 87.5085 14.127 87.5215 14.293L87.4824 14.3125H86.7793C86.75 14.3125 86.7109 14.1953 86.6621 13.9609C86.4798 13.6745 86.2324 13.5312 85.9199 13.5312C85.5749 13.5312 85.3275 13.7396 85.1777 14.1562V17.5352C85.1777 17.7956 85.3535 18.0104 85.7051 18.1797C85.7962 18.2057 85.8743 18.2188 85.9395 18.2188C86.3138 18.2188 86.5742 18.0169 86.7207 17.6133C86.7207 17.4961 86.7402 17.4375 86.7793 17.4375H87.4824L87.5215 17.457C87.5215 18.1081 87.1699 18.5964 86.4668 18.9219C86.2975 18.974 86.1152 19 85.9199 19C85.2689 19 84.7871 18.6549 84.4746 17.9648C84.4225 17.8118 84.3965 17.6751 84.3965 17.5547V14.1953C84.3965 13.6419 84.722 13.1927 85.373 12.8477C85.5618 12.7826 85.7637 12.75 85.9785 12.75ZM91.1641 12.75C91.1868 12.75 91.1999 12.763 91.2031 12.7891V16.8125C91.2324 16.7962 92.0007 15.4551 93.5078 12.7891H93.5469V18.9609C93.5469 18.987 93.5339 19 93.5078 19H92.8047C92.7786 19 92.7656 18.987 92.7656 18.9609V14.8984H92.7461L90.4609 18.9414H90.4219V12.7891C90.4219 12.7663 90.4349 12.7533 90.4609 12.75H91.1641ZM96.4863 12.75H99.5332C99.5592 12.7533 99.5723 12.7663 99.5723 12.7891V13.4922C99.5723 13.5182 99.5592 13.5312 99.5332 13.5312H97.2285V15.875H99.5332C99.5592 15.8783 99.5723 15.8913 99.5723 15.9141V16.6172C99.5723 16.6432 99.5592 16.6562 99.5332 16.6562H97.2285V18.2188H99.5332C99.5592 18.222 99.5723 18.235 99.5723 18.2578V18.9609C99.5723 18.987 99.5592 19 99.5332 19H96.4863C96.4603 19 96.4473 18.987 96.4473 18.9609V12.7891C96.4505 12.763 96.4635 12.75 96.4863 12.75ZM54.3086 22.75H55.0117C55.0378 22.7533 55.0508 22.7663 55.0508 22.7891V25.875H56.6133V22.7891C56.6165 22.763 56.6296 22.75 56.6523 22.75H57.3555C57.3815 22.7533 57.3945 22.7663 57.3945 22.7891V28.9609C57.3945 28.987 57.3815 29 57.3555 29H56.6523C56.6263 29 56.6133 28.987 56.6133 28.9609V26.6562H55.0508V28.9609C55.0508 28.987 55.0378 29 55.0117 29H54.3086C54.2826 29 54.2695 28.987 54.2695 28.9609V22.7891C54.2728 22.763 54.2858 22.75 54.3086 22.75ZM61.8965 22.75C62.5475 22.75 63.0293 23.0951 63.3418 23.7852C63.3939 23.9447 63.4199 24.0814 63.4199 24.1953V28.9609C63.4199 28.987 63.4069 29 63.3809 29H62.6777C62.6517 29 62.6387 28.987 62.6387 28.9609V26.6562H61.0762V28.9609C61.0762 28.987 61.0632 29 61.0371 29H60.334C60.3079 29 60.2949 28.987 60.2949 28.9609V24.4688C60.2949 23.6549 60.6465 23.1081 61.3496 22.8281C61.5189 22.776 61.7012 22.75 61.8965 22.75ZM61.0762 24.4492V25.875H62.6387V24.2148C62.6387 23.9544 62.4629 23.7396 62.1113 23.5703C62.0202 23.5443 61.9421 23.5312 61.877 23.5312C61.5059 23.5312 61.2454 23.7331 61.0957 24.1367C61.0827 24.2702 61.0762 24.3743 61.0762 24.4492ZM73.9277 22.75C74.5723 22.75 75.054 23.4336 75.373 24.8008C75.4121 24.9733 75.4447 25.3314 75.4707 25.875C75.4707 27.1641 75.1387 28.1406 74.4746 28.8047C74.2826 28.9349 74.0807 29 73.8691 29C73.2279 29 72.7461 28.3164 72.4238 26.9492C72.3717 26.6367 72.3457 26.3438 72.3457 26.0703V25.6797C72.3457 24.6673 72.6126 23.8145 73.1465 23.1211C73.3743 22.8737 73.6348 22.75 73.9277 22.75ZM73.127 25.7188V26.0898C73.2148 27.5091 73.4818 28.2188 73.9277 28.2188C74.2467 28.2188 74.4876 27.6654 74.6504 26.5586L74.6895 25.875C74.6081 24.3125 74.3346 23.5312 73.8691 23.5312C73.5599 23.5312 73.3255 24.0521 73.166 25.0938C73.14 25.2272 73.127 25.4355 73.127 25.7188ZM78.4102 22.75H81.457C81.4831 22.7533 81.4961 22.7663 81.4961 22.7891V23.4922C81.4961 23.5182 81.4831 23.5312 81.457 23.5312H79.1523V25.875H79.9336C80.6758 25.875 81.1836 26.2786 81.457 27.0859C81.4831 27.2617 81.4961 27.3919 81.4961 27.4766C81.4961 28.196 81.0729 28.6973 80.2266 28.9805C80.0833 28.9935 79.9531 29 79.8359 29H78.4102C78.3841 29 78.3711 28.987 78.3711 28.9609V22.7891C78.3743 22.763 78.3874 22.75 78.4102 22.75ZM79.1523 26.6562V28.2188H79.9141C80.3047 28.2188 80.5716 28.0104 80.7148 27.5938V27.4375C80.7148 27.0566 80.526 26.8092 80.1484 26.6953C80.002 26.6693 79.8978 26.6562 79.8359 26.6562H79.1523ZM84.4355 22.75H85.959C86.7533 22.75 87.2676 23.1927 87.502 24.0781C87.515 24.2018 87.5215 24.3255 87.5215 24.4492V25.0156C87.5215 25.8327 87.1048 26.373 86.2715 26.6367C86.1283 26.6497 86.0046 26.6562 85.9004 26.6562H85.1777V28.9609C85.1777 28.987 85.1647 29 85.1387 29H84.4355C84.4095 29 84.3965 28.987 84.3965 28.9609V22.7891C84.3997 22.763 84.4128 22.75 84.4355 22.75ZM85.1777 23.5312V25.875H85.9395C86.3301 25.875 86.597 25.6667 86.7402 25.25V24.4102C86.7402 24.0098 86.5905 23.7428 86.291 23.6094C86.2031 23.5573 86.125 23.5312 86.0566 23.5312H85.1777ZM92.0234 22.75C92.6745 22.75 93.1562 23.0951 93.4688 23.7852C93.5208 23.9447 93.5469 24.0814 93.5469 24.1953V28.9609C93.5469 28.987 93.5339 29 93.5078 29H92.8047C92.7786 29 92.7656 28.987 92.7656 28.9609V26.6562H91.2031V28.9609C91.2031 28.987 91.1901 29 91.1641 29H90.4609C90.4349 29 90.4219 28.987 90.4219 28.9609V24.4688C90.4219 23.6549 90.7734 23.1081 91.4766 22.8281C91.6458 22.776 91.8281 22.75 92.0234 22.75ZM91.2031 24.4492V25.875H92.7656V24.2148C92.7656 23.9544 92.5898 23.7396 92.2383 23.5703C92.1471 23.5443 92.069 23.5312 92.0039 23.5312C91.6328 23.5312 91.3724 23.7331 91.2227 24.1367C91.2096 24.2702 91.2031 24.3743 91.2031 24.4492ZM96.4863 22.75H99.5332C99.5592 22.7533 99.5723 22.7663 99.5723 22.7891V23.4922C99.5723 23.5182 99.5592 23.5312 99.5332 23.5312H97.2285V25.875H98.0098C98.752 25.875 99.2598 26.2786 99.5332 27.0859C99.5592 27.2617 99.5723 27.3919 99.5723 27.4766C99.5723 28.196 99.1491 28.6973 98.3027 28.9805C98.1595 28.9935 98.0293 29 97.9121 29H96.4863C96.4603 29 96.4473 28.987 96.4473 28.9609V22.7891C96.4505 22.763 96.4635 22.75 96.4863 22.75ZM97.2285 26.6562V28.2188H97.9902C98.3809 28.2188 98.6478 28.0104 98.791 27.5938V27.4375C98.791 27.0566 98.6022 26.8092 98.2246 26.6953C98.0781 26.6693 97.974 26.6562 97.9121 26.6562H97.2285ZM104.055 22.75C104.699 22.75 105.181 23.4336 105.5 24.8008C105.539 24.9733 105.572 25.3314 105.598 25.875C105.598 27.1641 105.266 28.1406 104.602 28.8047C104.41 28.9349 104.208 29 103.996 29C103.355 29 102.873 28.3164 102.551 26.9492C102.499 26.6367 102.473 26.3438 102.473 26.0703V25.6797C102.473 24.6673 102.74 23.8145 103.273 23.1211C103.501 22.8737 103.762 22.75 104.055 22.75ZM103.254 25.7188V26.0898C103.342 27.5091 103.609 28.2188 104.055 28.2188C104.374 28.2188 104.615 27.6654 104.777 26.5586L104.816 25.875C104.735 24.3125 104.462 23.5312 103.996 23.5312C103.687 23.5312 103.452 24.0521 103.293 25.0938C103.267 25.2272 103.254 25.4355 103.254 25.7188ZM108.537 22.75H111.584C111.61 22.7533 111.623 22.7663 111.623 22.7891V23.4922C111.623 23.5182 111.61 23.5312 111.584 23.5312H110.471V28.9609C110.471 28.987 110.458 29 110.432 29H109.729C109.702 29 109.689 28.987 109.689 28.9609V23.5312H108.537C108.511 23.5312 108.498 23.5182 108.498 23.4922V22.7891C108.501 22.763 108.514 22.75 108.537 22.75ZM114.562 22.75H115.266C115.292 22.7533 115.305 22.7663 115.305 22.7891V25.8359H115.324L116.867 22.7695L116.906 22.75H117.609C117.635 22.75 117.648 22.7695 117.648 22.8086C116.672 24.7747 116.184 25.7708 116.184 25.7969V25.875C116.815 25.875 117.29 26.2656 117.609 27.0469C117.635 27.2031 117.648 27.3268 117.648 27.418V28.9609C117.648 28.987 117.635 29 117.609 29H116.906C116.88 29 116.867 28.987 116.867 28.9609V27.4375C116.867 27.0762 116.678 26.8223 116.301 26.6758C116.278 26.6628 116.252 26.6562 116.223 26.6562H115.305V28.9609C115.305 28.987 115.292 29 115.266 29H114.562C114.536 29 114.523 28.987 114.523 28.9609V22.7891C114.527 22.763 114.54 22.75 114.562 22.75ZM120.588 22.75H121.291C121.317 22.7533 121.33 22.7663 121.33 22.7891V25.0742C121.33 25.4681 121.538 25.735 121.955 25.875H122.131C122.476 25.875 122.704 25.7188 122.814 25.4062C122.867 25.2533 122.893 25.1165 122.893 24.9961V22.7891C122.896 22.763 122.909 22.75 122.932 22.75H123.635C123.661 22.7533 123.674 22.7663 123.674 22.7891V27.4375C123.674 28.222 123.238 28.7363 122.365 28.9805C122.287 28.9935 122.189 29 122.072 29C121.333 29 120.832 28.5703 120.568 27.7109C120.555 27.5482 120.549 27.4635 120.549 27.457L120.588 27.4375H121.252C121.304 27.4375 121.363 27.5807 121.428 27.8672C121.63 28.1016 121.877 28.2188 122.17 28.2188C122.486 28.2188 122.707 28.0495 122.834 27.7109C122.873 27.5449 122.893 27.4212 122.893 27.3398V26.4609H122.873C122.632 26.5911 122.378 26.6562 122.111 26.6562C121.337 26.6562 120.822 26.2266 120.568 25.3672C120.555 25.2663 120.549 25.1556 120.549 25.0352V22.7891C120.552 22.763 120.565 22.75 120.588 22.75ZM54.3086 32.75H57.3555C57.3815 32.7533 57.3945 32.7663 57.3945 32.7891V38.9609C57.3945 38.987 57.3815 39 57.3555 39H56.6523C56.6263 39 56.6133 38.987 56.6133 38.9609V33.5312H55.0508V38.9609C55.0508 38.987 55.0378 39 55.0117 39H54.3086C54.2826 39 54.2695 38.987 54.2695 38.9609V32.7891C54.2728 32.763 54.2858 32.75 54.3086 32.75ZM60.334 32.75H63.3809C63.4069 32.7533 63.4199 32.7663 63.4199 32.7891V33.4922C63.4199 33.5182 63.4069 33.5312 63.3809 33.5312H61.0762V35.875H63.3809C63.4069 35.8783 63.4199 35.8913 63.4199 35.9141V36.6172C63.4199 36.6432 63.4069 36.6562 63.3809 36.6562H61.0762V38.2188H63.3809C63.4069 38.222 63.4199 38.235 63.4199 38.2578V38.9609C63.4199 38.987 63.4069 39 63.3809 39H60.334C60.3079 39 60.2949 38.987 60.2949 38.9609V32.7891C60.2982 32.763 60.3112 32.75 60.334 32.75ZM66.3594 32.75H67.8828C68.6771 32.75 69.1914 33.1927 69.4258 34.0781C69.4388 34.2018 69.4453 34.3255 69.4453 34.4492V35.0156C69.4453 35.8327 69.0286 36.373 68.1953 36.6367C68.0521 36.6497 67.9284 36.6562 67.8242 36.6562H67.1016V38.9609C67.1016 38.987 67.0885 39 67.0625 39H66.3594C66.3333 39 66.3203 38.987 66.3203 38.9609V32.7891C66.3236 32.763 66.3366 32.75 66.3594 32.75ZM67.1016 33.5312V35.875H67.8633C68.2539 35.875 68.5208 35.6667 68.6641 35.25V34.4102C68.6641 34.0098 68.5143 33.7428 68.2148 33.6094C68.127 33.5573 68.0488 33.5312 67.9805 33.5312H67.1016ZM73.9277 32.75C74.5951 32.75 75.0833 33.1081 75.3926 33.8242C75.4316 33.9707 75.4577 34.127 75.4707 34.293L75.4316 34.3125H74.7285C74.6992 34.3125 74.6602 34.1953 74.6113 33.9609C74.429 33.6745 74.1816 33.5312 73.8691 33.5312C73.5241 33.5312 73.2767 33.7396 73.127 34.1562V37.5352C73.127 37.7956 73.3027 38.0104 73.6543 38.1797C73.7454 38.2057 73.8236 38.2188 73.8887 38.2188C74.263 38.2188 74.5234 38.0169 74.6699 37.6133C74.6699 37.4961 74.6895 37.4375 74.7285 37.4375H75.4316L75.4707 37.457C75.4707 38.1081 75.1191 38.5964 74.416 38.9219C74.2467 38.974 74.0645 39 73.8691 39C73.2181 39 72.7363 38.6549 72.4238 37.9648C72.3717 37.8118 72.3457 37.6751 72.3457 37.5547V34.1953C72.3457 33.6419 72.6712 33.1927 73.3223 32.8477C73.5111 32.7826 73.7129 32.75 73.9277 32.75ZM79.9531 32.75C80.5977 32.75 81.0794 33.4336 81.3984 34.8008C81.4375 34.9733 81.4701 35.3314 81.4961 35.875C81.4961 37.1641 81.1641 38.1406 80.5 38.8047C80.3079 38.9349 80.1061 39 79.8945 39C79.2533 39 78.7715 38.3164 78.4492 36.9492C78.3971 36.6367 78.3711 36.3438 78.3711 36.0703V35.6797C78.3711 34.6673 78.638 33.8145 79.1719 33.1211C79.3997 32.8737 79.6602 32.75 79.9531 32.75ZM79.1523 35.7188V36.0898C79.2402 37.5091 79.5072 38.2188 79.9531 38.2188C80.2721 38.2188 80.513 37.6654 80.6758 36.5586L80.7148 35.875C80.6335 34.3125 80.36 33.5312 79.8945 33.5312C79.5853 33.5312 79.3509 34.0521 79.1914 35.0938C79.1654 35.2272 79.1523 35.4355 79.1523 35.7188ZM84.4355 32.75H85.1387C85.1647 32.7533 85.1777 32.7663 85.1777 32.7891V35.875H86.7402V32.7891C86.7435 32.763 86.7565 32.75 86.7793 32.75H87.4824C87.5085 32.7533 87.5215 32.7663 87.5215 32.7891V38.9609C87.5215 38.987 87.5085 39 87.4824 39H86.7793C86.7533 39 86.7402 38.987 86.7402 38.9609V36.6562H85.1777V38.9609C85.1777 38.987 85.1647 39 85.1387 39H84.4355C84.4095 39 84.3965 38.987 84.3965 38.9609V32.7891C84.3997 32.763 84.4128 32.75 84.4355 32.75ZM92.0234 32.75C92.6745 32.75 93.1562 33.0951 93.4688 33.7852C93.5208 33.9447 93.5469 34.0814 93.5469 34.1953V38.9609C93.5469 38.987 93.5339 39 93.5078 39H92.8047C92.7786 39 92.7656 38.987 92.7656 38.9609V36.6562H91.2031V38.9609C91.2031 38.987 91.1901 39 91.1641 39H90.4609C90.4349 39 90.4219 38.987 90.4219 38.9609V34.4688C90.4219 33.6549 90.7734 33.1081 91.4766 32.8281C91.6458 32.776 91.8281 32.75 92.0234 32.75ZM91.2031 34.4492V35.875H92.7656V34.2148C92.7656 33.9544 92.5898 33.7396 92.2383 33.5703C92.1471 33.5443 92.069 33.5312 92.0039 33.5312C91.6328 33.5312 91.3724 33.7331 91.2227 34.1367C91.2096 34.2702 91.2031 34.3743 91.2031 34.4492ZM98.0684 32.75H99.5332C99.5592 32.7533 99.5723 32.7663 99.5723 32.7891V38.9609C99.5723 38.987 99.5592 39 99.5332 39H98.8301C98.804 39 98.791 38.987 98.791 38.9609V33.5312H98.0293C97.6419 33.5312 97.375 33.7331 97.2285 34.1367V38.9609C97.2285 38.987 97.2155 39 97.1895 39H96.4863C96.4603 39 96.4473 38.987 96.4473 38.9609V34.2539C96.4473 33.5345 96.8704 33.0397 97.7168 32.7695C97.8405 32.7565 97.9577 32.75 98.0684 32.75ZM102.512 32.75H103.215C103.241 32.7533 103.254 32.7663 103.254 32.7891V35.875H104.035C104.8 35.875 105.314 36.2917 105.578 37.125C105.591 37.2096 105.598 37.2943 105.598 37.3789V37.5156C105.598 38.2188 105.174 38.707 104.328 38.9805C104.204 38.9935 104.087 39 103.977 39H102.512C102.486 39 102.473 38.987 102.473 38.9609V32.7891C102.476 32.763 102.489 32.75 102.512 32.75ZM103.254 36.6562V38.2188H104.016C104.37 38.2188 104.618 38.0625 104.758 37.75C104.797 37.6816 104.816 37.6165 104.816 37.5547V37.3398C104.816 37.0501 104.647 36.8418 104.309 36.7148C104.172 36.6758 104.035 36.6562 103.898 36.6562H103.254ZM108.537 32.75H109.24C109.266 32.7533 109.279 32.7663 109.279 32.7891V35.875H110.842V32.7891C110.845 32.763 110.858 32.75 110.881 32.75H111.584C111.61 32.7533 111.623 32.7663 111.623 32.7891V38.9609C111.623 38.987 111.61 39 111.584 39H110.881C110.855 39 110.842 38.987 110.842 38.9609V36.6562H109.279V38.9609C109.279 38.987 109.266 39 109.24 39H108.537C108.511 39 108.498 38.987 108.498 38.9609V32.7891C108.501 32.763 108.514 32.75 108.537 32.75ZM114.27 32.75H114.973C114.999 32.7533 115.012 32.7663 115.012 32.7891V35.875H115.793C116.548 35.875 117.056 36.2852 117.316 37.1055V37.2227H117.355V32.7891C117.359 32.763 117.372 32.75 117.395 32.75H118.098C118.124 32.7533 118.137 32.7663 118.137 32.7891V38.9609C118.137 38.987 118.124 39 118.098 39H117.395C117.368 39 117.355 38.987 117.355 38.9609V37.6523H117.316V37.6914C117.316 38.248 116.906 38.6777 116.086 38.9805C115.933 38.9935 115.822 39 115.754 39H114.27C114.243 39 114.23 38.987 114.23 38.9609V32.7891C114.234 32.763 114.247 32.75 114.27 32.75ZM115.012 36.6562V38.2188H115.773C116.164 38.2188 116.431 38.0104 116.574 37.5938V37.4375C116.574 37.0566 116.385 36.8092 116.008 36.6953C115.861 36.6693 115.757 36.6562 115.695 36.6562H115.012ZM120.549 32.75H121.291C121.398 32.8704 121.613 33.3913 121.936 34.3125L122.092 34.7812H122.131C122.538 33.5605 122.805 32.8835 122.932 32.75H123.674V32.7695C123.01 34.5078 122.632 35.5495 122.541 35.8945L123.674 38.9609V38.9805L123.635 39H122.951C122.876 38.9935 122.622 38.375 122.189 37.1445C122.16 37.1445 122.141 37.0729 122.131 36.9297H122.092C121.753 37.9551 121.493 38.6387 121.311 38.9805L121.271 39H120.568L120.529 38.9805C121.128 37.444 121.512 36.3958 121.682 35.8359L120.549 32.75ZM134.123 32.75H135.588C135.614 32.7533 135.627 32.7663 135.627 32.7891V38.2188H136.174C136.2 38.222 136.213 38.235 136.213 38.2578V38.9609C136.213 38.987 136.2 39 136.174 39H131.994C131.968 39 131.955 38.987 131.955 38.9609V38.2578C131.958 38.2318 131.971 38.2188 131.994 38.2188H132.502V34.2539C132.502 33.5345 132.925 33.0397 133.771 32.7695C133.895 32.7565 134.012 32.75 134.123 32.75ZM133.283 38.2188H134.846V33.5312H134.084C133.697 33.5312 133.43 33.7331 133.283 34.1367V38.2188ZM140.227 32.75C140.878 32.75 141.359 33.0951 141.672 33.7852C141.724 33.9447 141.75 34.0814 141.75 34.1953V38.9609C141.75 38.987 141.737 39 141.711 39H141.008C140.982 39 140.969 38.987 140.969 38.9609V36.6562H139.406V38.9609C139.406 38.987 139.393 39 139.367 39H138.664C138.638 39 138.625 38.987 138.625 38.9609V34.4688C138.625 33.6549 138.977 33.1081 139.68 32.8281C139.849 32.776 140.031 32.75 140.227 32.75ZM139.406 34.4492V35.875H140.969V34.2148C140.969 33.9544 140.793 33.7396 140.441 33.5703C140.35 33.5443 140.272 33.5312 140.207 33.5312C139.836 33.5312 139.576 33.7331 139.426 34.1367C139.413 34.2702 139.406 34.3743 139.406 34.4492ZM144.689 32.75H145.393C145.419 32.7533 145.432 32.7663 145.432 32.7891V35.875H146.994V32.7891C146.997 32.763 147.01 32.75 147.033 32.75H147.736C147.762 32.7533 147.775 32.7663 147.775 32.7891V38.9609C147.775 38.987 147.762 39 147.736 39H147.033C147.007 39 146.994 38.987 146.994 38.9609V36.6562H145.432V38.9609C145.432 38.987 145.419 39 145.393 39H144.689C144.663 39 144.65 38.987 144.65 38.9609V32.7891C144.654 32.763 144.667 32.75 144.689 32.75ZM150.715 32.75H151.418C151.444 32.7533 151.457 32.7663 151.457 32.7891V35.875H153.02V32.7891C153.023 32.763 153.036 32.75 153.059 32.75H153.762C153.788 32.7533 153.801 32.7663 153.801 32.7891V38.9609C153.801 38.987 153.788 39 153.762 39H153.059C153.033 39 153.02 38.987 153.02 38.9609V36.6562H151.457V38.9609C151.457 38.987 151.444 39 151.418 39H150.715C150.689 39 150.676 38.987 150.676 38.9609V32.7891C150.679 32.763 150.692 32.75 150.715 32.75ZM156.447 32.75H157.15C157.176 32.7533 157.189 32.7663 157.189 32.7891V35.875H157.971C158.726 35.875 159.234 36.2852 159.494 37.1055V37.2227H159.533V32.7891C159.536 32.763 159.549 32.75 159.572 32.75H160.275C160.301 32.7533 160.314 32.7663 160.314 32.7891V38.9609C160.314 38.987 160.301 39 160.275 39H159.572C159.546 39 159.533 38.987 159.533 38.9609V37.6523H159.494V37.6914C159.494 38.248 159.084 38.6777 158.264 38.9805C158.111 38.9935 158 39 157.932 39H156.447C156.421 39 156.408 38.987 156.408 38.9609V32.7891C156.411 32.763 156.424 32.75 156.447 32.75ZM157.189 36.6562V38.2188H157.951C158.342 38.2188 158.609 38.0104 158.752 37.5938V37.4375C158.752 37.0566 158.563 36.8092 158.186 36.6953C158.039 36.6693 157.935 36.6562 157.873 36.6562H157.189ZM162.727 32.75H163.469C163.576 32.8704 163.791 33.3913 164.113 34.3125L164.27 34.7812H164.309C164.715 33.5605 164.982 32.8835 165.109 32.75H165.852V32.7695C165.188 34.5078 164.81 35.5495 164.719 35.8945L165.852 38.9609V38.9805L165.812 39H165.129C165.054 38.9935 164.8 38.375 164.367 37.1445C164.338 37.1445 164.318 37.0729 164.309 36.9297H164.27C163.931 37.9551 163.671 38.6387 163.488 38.9805L163.449 39H162.746L162.707 38.9805C163.306 37.444 163.69 36.3958 163.859 35.8359L162.727 32.75Z" fill="white"/>
</g>
</g>
<defs>
<filter id="filter0_d_168_4700" x="0" y="0" width="202" height="60" filterUnits="userSpaceOnUse" color-interpolation-filters="sRGB">
<feFlood flood-opacity="0" result="BackgroundImageFix"/>
<feColorMatrix in="SourceAlpha" type="matrix" values="0 0 0 0 0 0 0 0 0 0 0 0 0 0 0 0 0 0 127 0" result="hardAlpha"/>
<feOffset dy="4"/>
<feGaussianBlur stdDeviation="2"/>
<feComposite in2="hardAlpha" operator="out"/>
<feColorMatrix type="matrix" values="0 0 0 0 0 0 0 0 0 0 0 0 0 0 0 0 0 0 0.25 0"/>
<feBlend mode="normal" in2="BackgroundImageFix" result="effect1_dropShadow_168_4700"/>
<feBlend mode="normal" in="SourceGraphic" in2="effect1_dropShadow_168_4700" result="shape"/>
</filter>
<clipPath id="clip0_168_4700">
<rect x="4" width="194" height="52" rx="10" fill="white"/>
</clipPath>
</defs>
</svg>
