<svg width="532" height="185" viewBox="0 0 532 185" fill="none" xmlns="http://www.w3.org/2000/svg">
<g filter="url(#filter0_d_83_1154)">
<path d="M181.562 0.5H212.031C212.292 0.532552 212.422 0.66276 212.422 0.890625V7.92188C212.422 8.18229 212.292 8.3125 212.031 8.3125H200.898V62.6094C200.898 62.8698 200.768 63 200.508 63H193.477C193.216 63 193.086 62.8698 193.086 62.6094V8.3125H181.562C181.302 8.3125 181.172 8.18229 181.172 7.92188V0.890625C181.204 0.630208 181.335 0.5 181.562 0.5ZM257.246 0.5C263.691 0.5 268.509 7.33594 271.699 21.0078C272.09 22.7331 272.415 26.3138 272.676 31.75C272.676 44.6406 269.355 54.4062 262.715 61.0469C260.794 62.349 258.776 63 256.66 63C250.247 63 245.43 56.1641 242.207 42.4922C241.686 39.3672 241.426 36.4375 241.426 33.7031V29.7969C241.426 19.6732 244.095 11.1445 249.434 4.21094C251.712 1.73698 254.316 0.5 257.246 0.5ZM249.238 30.1875V33.8984C250.117 48.0911 252.786 55.1875 257.246 55.1875C260.436 55.1875 262.845 49.6536 264.473 38.5859L264.863 31.75C264.049 16.125 261.315 8.3125 256.66 8.3125C253.568 8.3125 251.224 13.5208 249.629 23.9375C249.368 25.2721 249.238 27.3555 249.238 30.1875ZM302.07 0.5H317.695C324.564 0.5 329.382 5.05729 332.148 14.1719C332.669 15.9622 332.93 17.5898 332.93 19.0547V20.4219C332.93 26.4766 330.911 31.4896 326.875 35.4609C328.665 36.112 330.358 38.0651 331.953 41.3203C332.604 43.1107 332.93 44.8685 332.93 46.5938V48.1562C332.93 55.1224 328.763 60.0052 320.43 62.8047C319.421 62.9349 318.314 63 317.109 63H302.07C301.81 63 301.68 62.8698 301.68 62.6094V0.890625C301.712 0.630208 301.842 0.5 302.07 0.5ZM309.492 8.3125V31.75H315.742C321.048 31.75 324.173 28.2344 325.117 21.2031V20.0312C325.117 16.418 323.815 13.0326 321.211 9.875C319.974 8.83333 318.411 8.3125 316.523 8.3125H309.492ZM309.492 39.5625V55.1875H314.961C320.039 55.1875 323.229 53.5599 324.531 50.3047L325.117 46.7891C325.117 43.6315 322.904 41.2878 318.477 39.7578C316.979 39.6276 315.547 39.5625 314.18 39.5625H309.492ZM377.949 0.5C384.46 0.5 389.277 3.95052 392.402 10.8516C392.923 12.4466 393.184 13.8138 393.184 14.9531V62.6094C393.184 62.8698 393.053 63 392.793 63H385.762C385.501 63 385.371 62.8698 385.371 62.6094V39.5625H369.746V62.6094C369.746 62.8698 369.616 63 369.355 63H362.324C362.064 63 361.934 62.8698 361.934 62.6094V17.6875C361.934 9.54948 365.449 4.08073 372.48 1.28125C374.173 0.760417 375.996 0.5 377.949 0.5ZM369.746 17.4922V31.75H385.371V15.1484C385.371 12.5443 383.613 10.3958 380.098 8.70312C379.186 8.44271 378.405 8.3125 377.754 8.3125C374.043 8.3125 371.439 10.3307 369.941 14.3672C369.811 15.7018 369.746 16.7435 369.746 17.4922ZM422.578 0.5H437.812C445.755 0.5 450.898 4.92708 453.242 13.7812C453.372 15.0182 453.438 16.2552 453.438 17.4922V23.1562C453.438 31.3268 449.271 36.7305 440.938 39.3672C439.505 39.4974 438.268 39.5625 437.227 39.5625H430V62.6094C430 62.8698 429.87 63 429.609 63H422.578C422.318 63 422.188 62.8698 422.188 62.6094V0.890625C422.22 0.630208 422.35 0.5 422.578 0.5ZM430 8.3125V31.75H437.617C441.523 31.75 444.193 29.6667 445.625 25.5V17.1016C445.625 13.0977 444.128 10.4284 441.133 9.09375C440.254 8.57292 439.473 8.3125 438.789 8.3125H430ZM479.902 0.5H486.934C487.194 0.532552 487.324 0.66276 487.324 0.890625V31.75H495.137C502.689 31.75 507.767 35.8516 510.371 44.0547V45.2266H510.762V0.890625C510.794 0.630208 510.924 0.5 511.152 0.5H518.184C518.444 0.532552 518.574 0.66276 518.574 0.890625V62.6094C518.574 62.8698 518.444 63 518.184 63H511.152C510.892 63 510.762 62.8698 510.762 62.6094V49.5234H510.371V49.9141C510.371 55.4805 506.27 59.7773 498.066 62.8047C496.536 62.9349 495.43 63 494.746 63H479.902C479.642 63 479.512 62.8698 479.512 62.6094V0.890625C479.544 0.630208 479.674 0.5 479.902 0.5ZM487.324 39.5625V55.1875H494.941C498.848 55.1875 501.517 53.1042 502.949 48.9375V47.375C502.949 43.5664 501.061 41.0924 497.285 39.9531C495.82 39.6927 494.779 39.5625 494.16 39.5625H487.324ZM0.800781 100.5H7.83203C8.09245 100.533 8.22266 100.663 8.22266 100.891V131.359H8.41797L23.8477 100.695L24.2383 100.5H31.2695C31.5299 100.5 31.6602 100.695 31.6602 101.086C21.8945 120.747 17.0117 130.708 17.0117 130.969V131.75C23.3268 131.75 28.0794 135.656 31.2695 143.469C31.5299 145.031 31.6602 146.268 31.6602 147.18V162.609C31.6602 162.87 31.5299 163 31.2695 163H24.2383C23.9779 163 23.8477 162.87 23.8477 162.609V147.375C23.8477 143.762 21.9596 141.223 18.1836 139.758C17.9557 139.628 17.6953 139.562 17.4023 139.562H8.22266V162.609C8.22266 162.87 8.09245 163 7.83203 163H0.800781C0.540365 163 0.410156 162.87 0.410156 162.609V100.891C0.442708 100.63 0.572917 100.5 0.800781 100.5ZM76.4844 100.5C82.9297 100.5 87.7474 107.336 90.9375 121.008C91.3281 122.733 91.6536 126.314 91.9141 131.75C91.9141 144.641 88.5938 154.406 81.9531 161.047C80.0326 162.349 78.0143 163 75.8984 163C69.4857 163 64.668 156.164 61.4453 142.492C60.9245 139.367 60.6641 136.438 60.6641 133.703V129.797C60.6641 119.673 63.3333 111.145 68.6719 104.211C70.9505 101.737 73.5547 100.5 76.4844 100.5ZM68.4766 130.188V133.898C69.3555 148.091 72.0247 155.188 76.4844 155.188C79.6745 155.188 82.0833 149.654 83.7109 138.586L84.1016 131.75C83.2878 116.125 80.5534 108.312 75.8984 108.312C72.806 108.312 70.4622 113.521 68.8672 123.938C68.6068 125.272 68.4766 127.355 68.4766 130.188ZM137.129 100.5H151.777C152.038 100.533 152.168 100.663 152.168 100.891V162.609C152.168 162.87 152.038 163 151.777 163H144.746C144.486 163 144.355 162.87 144.355 162.609V108.312H136.738C132.865 108.312 130.195 110.331 128.73 114.367V162.609C128.73 162.87 128.6 163 128.34 163H121.309C121.048 163 120.918 162.87 120.918 162.609V115.539C120.918 108.345 125.15 103.397 133.613 100.695C134.85 100.565 136.022 100.5 137.129 100.5ZM197.383 100.5H212.031C212.292 100.533 212.422 100.663 212.422 100.891V162.609C212.422 162.87 212.292 163 212.031 163H205C204.74 163 204.609 162.87 204.609 162.609V108.312H196.992C193.118 108.312 190.449 110.331 188.984 114.367V162.609C188.984 162.87 188.854 163 188.594 163H181.562C181.302 163 181.172 162.87 181.172 162.609V115.539C181.172 108.345 185.404 103.397 193.867 100.695C195.104 100.565 196.276 100.5 197.383 100.5ZM241.816 100.5H272.285C272.546 100.533 272.676 100.663 272.676 100.891V107.922C272.676 108.182 272.546 108.312 272.285 108.312H249.238V131.75H272.285C272.546 131.783 272.676 131.913 272.676 132.141V139.172C272.676 139.432 272.546 139.562 272.285 139.562H249.238V155.188H272.285C272.546 155.22 272.676 155.35 272.676 155.578V162.609C272.676 162.87 272.546 163 272.285 163H241.816C241.556 163 241.426 162.87 241.426 162.609V100.891C241.458 100.63 241.589 100.5 241.816 100.5ZM302.07 100.5H309.102C309.362 100.533 309.492 100.663 309.492 100.891V131.359H309.688L325.117 100.695L325.508 100.5H332.539C332.799 100.5 332.93 100.695 332.93 101.086C323.164 120.747 318.281 130.708 318.281 130.969V131.75C324.596 131.75 329.349 135.656 332.539 143.469C332.799 145.031 332.93 146.268 332.93 147.18V162.609C332.93 162.87 332.799 163 332.539 163H325.508C325.247 163 325.117 162.87 325.117 162.609V147.375C325.117 143.762 323.229 141.223 319.453 139.758C319.225 139.628 318.965 139.562 318.672 139.562H309.492V162.609C309.492 162.87 309.362 163 309.102 163H302.07C301.81 163 301.68 162.87 301.68 162.609V100.891C301.712 100.63 301.842 100.5 302.07 100.5ZM362.324 100.793H369.355C369.616 100.826 369.746 100.956 369.746 101.184V155.48H381.66V101.184C381.693 100.923 381.823 100.793 382.051 100.793H389.082C389.342 100.826 389.473 100.956 389.473 101.184V155.48H392.793C393.053 155.513 393.184 155.643 393.184 155.871V170.715C393.184 170.975 393.053 171.105 392.793 171.105H385.762C385.501 171.105 385.371 170.975 385.371 170.715V163.293H362.324C362.064 163.293 361.934 163.163 361.934 162.902V101.184C361.966 100.923 362.096 100.793 362.324 100.793ZM429.609 100.5C429.837 100.5 429.967 100.63 430 100.891V141.125C430.293 140.962 437.975 127.551 453.047 100.891H453.438V162.609C453.438 162.87 453.307 163 453.047 163H446.016C445.755 163 445.625 162.87 445.625 162.609V121.984H445.43L422.578 162.414H422.188V100.891C422.188 100.663 422.318 100.533 422.578 100.5H429.609ZM489.863 100.5C490.091 100.5 490.221 100.63 490.254 100.891V141.125C490.547 140.962 498.229 127.551 513.301 100.891H513.691V162.609C513.691 162.87 513.561 163 513.301 163H506.27C506.009 163 505.879 162.87 505.879 162.609V121.984H505.684L482.832 162.414H482.441V100.891C482.441 100.663 482.572 100.533 482.832 100.5H489.863Z" fill="white"/>
</g>
<defs>
<filter id="filter0_d_83_1154" x="0.410156" y="0.5" width="531.164" height="183.605" filterUnits="userSpaceOnUse" color-interpolation-filters="sRGB">
<feFlood flood-opacity="0" result="BackgroundImageFix"/>
<feColorMatrix in="SourceAlpha" type="matrix" values="0 0 0 0 0 0 0 0 0 0 0 0 0 0 0 0 0 0 127 0" result="hardAlpha"/>
<feOffset dx="9" dy="9"/>
<feGaussianBlur stdDeviation="2"/>
<feComposite in2="hardAlpha" operator="out"/>
<feColorMatrix type="matrix" values="0 0 0 0 0 0 0 0 0 0 0 0 0 0 0 0 0 0 0.25 0"/>
<feBlend mode="normal" in2="BackgroundImageFix" result="effect1_dropShadow_83_1154"/>
<feBlend mode="normal" in="SourceGraphic" in2="effect1_dropShadow_83_1154" result="shape"/>
</filter>
</defs>
</svg>
